/* XPM */
static char *_0d499bcdead45b996935d6f3ccda13dMTg6vEQPzOFaFDhT[] = {
/* columns rows colors chars-per-pixel */
"64 64 245 2 ",
"   c #1C2600",
".  c #3A3806",
"X  c #30320A",
"o  c #3E3E22",
"O  c #473F0E",
"+  c #3A4601",
"@  c #3F4C09",
"#  c #464704",
"$  c #524C06",
"%  c #445301",
"&  c #4C5D01",
"*  c #495504",
"=  c #515E02",
"-  c #515C0D",
";  c #525400",
":  c #474618",
">  c #554B17",
",  c #4D5714",
"<  c #575617",
"1  c #625A12",
"2  c #4F6200",
"3  c #546400",
"4  c #5B6C01",
"5  c #5A6506",
"6  c #5E7102",
"7  c #5B6618",
"8  c #636800",
"9  c #637301",
"0  c #6C7C01",
"q  c #68780B",
"w  c #717B04",
"e  c #676A17",
"r  c #6A7915",
"t  c #757B1B",
"y  c #4B4621",
"u  c #564A27",
"i  c #555625",
"p  c #595A38",
"a  c #4F542C",
"s  c #655D38",
"d  c #65552E",
"f  c #5D6727",
"g  c #5E6538",
"h  c #676A25",
"j  c #687327",
"k  c #747B26",
"l  c #676738",
"z  c #766B37",
"x  c #6E7936",
"c  c #787635",
"v  c #726B25",
"b  c #666546",
"n  c #746D43",
"m  c #6E7445",
"M  c #767747",
"N  c #767857",
"B  c #6C6F58",
"V  c #797B61",
"C  c #565A43",
"Z  c #827832",
"A  c #837A1B",
"S  c #877D48",
"D  c #847D56",
"F  c #907E50",
"G  c #6E8302",
"H  c #6E810D",
"J  c #77890A",
"K  c #6F8117",
"L  c #738514",
"P  c #7C8C1B",
"I  c #7A8715",
"U  c #7E921A",
"Y  c #7D9209",
"T  c #798626",
"R  c #7A8734",
"E  c #7F9123",
"W  c #7B8548",
"Q  c #7C8454",
"!  c #849907",
"~  c #83951B",
"^  c #879A18",
"/  c #828E12",
"(  c #95A804",
")  c #8CA217",
"_  c #9AAA1D",
"`  c #94A71C",
"'  c #93AC11",
"]  c #87892A",
"[  c #879827",
"{  c #919E28",
"}  c #858A36",
"|  c #889636",
" . c #969739",
".. c #A49E3C",
"X. c #8EA222",
"o. c #8FA22E",
"O. c #94A42A",
"+. c #96A726",
"@. c #9CB228",
"#. c #93A434",
"$. c #97A73A",
"%. c #9FB237",
"&. c #8FA135",
"*. c #A5B72A",
"=. c #A2AD38",
"-. c #A3B333",
";. c #A7B939",
":. c #B1BE38",
">. c #A6B818",
",. c #B2C327",
"<. c #ADC33C",
"1. c #B5C53D",
"2. c #B4C537",
"3. c #ADC026",
"4. c #B2C51E",
"5. c #C2D434",
"6. c #858746",
"7. c #879347",
"8. c #949B48",
"9. c #8A895A",
"0. c #98885B",
"q. c #8C9458",
"w. c #959B57",
"e. c #91804C",
"r. c #99A646",
"t. c #9FB142",
"y. c #9AA658",
"u. c #A4B34B",
"i. c #A8B847",
"p. c #A5AB57",
"a. c #A5B453",
"s. c #ACBC54",
"d. c #A9B65A",
"f. c #AAB44A",
"g. c #858569",
"h. c #968768",
"j. c #8D946A",
"k. c #959C76",
"l. c #868B77",
"z. c #A1956F",
"x. c #9CA669",
"c. c #A1AD67",
"v. c #A9B368",
"b. c #B2BC6B",
"n. c #A4AC78",
"m. c #ACB577",
"M. c #B4B97B",
"N. c #AEC146",
"B. c #B5C34C",
"V. c #B5C649",
"C. c #B9C858",
"Z. c #B9C767",
"A. c #B9C576",
"S. c #CAD95C",
"D. c #C4D14F",
"F. c #D1DF6C",
"G. c #C2CC7B",
"H. c #C7D477",
"J. c #CAD66C",
"K. c #D6E579",
"L. c #CDE06C",
"P. c #E6F36F",
"I. c #9A9C84",
"U. c #A19F88",
"Y. c #9FA291",
"T. c #9EA387",
"R. c #A5A884",
"E. c #B4BA85",
"W. c #AAAA96",
"Q. c #B5B999",
"!. c #AFB390",
"~. c #B7B9A8",
"^. c #B2B5AC",
"/. c #C4BF95",
"(. c #C9B9A2",
"). c #BCC293",
"_. c #BFC1B9",
"`. c #BDC1A8",
"'. c #C3CD84",
"]. c #CCD78A",
"[. c #D1DB87",
"{. c #C6CE99",
"}. c #CBD39A",
"|. c #D4DC97",
" X c #DBE88D",
".X c #DAE499",
"XX c #E9F395",
"oX c #C4C9A8",
"OX c #CCD4A8",
"+X c #D5D9A9",
"@X c #C7C8B6",
"#X c #CED2B7",
"$X c #D7DBB6",
"%X c #D1CFBA",
"&X c #DCE5A8",
"*X c #DBE1BC",
"=X c #EAF5A6",
"-X c #F4FDAB",
";X c #E5ECB8",
":X c #ECF5B8",
">X c #F9FEBB",
",X c #E4EBAB",
"<X c #C7CBC5",
"1X c #CED2CB",
"2X c #CFD1C6",
"3X c #DADAC8",
"4X c #D3D5D1",
"5X c #E3DEC8",
"6X c #DCE1C5",
"7X c #DEE1DA",
"8X c #DFE1D3",
"9X c #E5E9C8",
"0X c #EDF2C9",
"qX c #FEFFC1",
"wX c #FEFFCB",
"eX c #F3F8C6",
"rX c #EBEDDC",
"tX c #E3E5D7",
"yX c #F3EFD6",
"uX c #EFF2DC",
"iX c #EDF1D6",
"pX c #FDFED3",
"aX c #F3F5DB",
"sX c #FDFEDC",
"dX c #F4F8D7",
"fX c #F6E8CD",
"gX c #DDE1E2",
"hX c #EBEBE9",
"jX c #EDF1E8",
"kX c #F4F5E5",
"lX c #F7FAE3",
"zX c #FDFEE4",
"xX c #F4F4EC",
"cX c #FEFEEC",
"vX c #F9F8EA",
"bX c #F4EEFD",
"nX c #F4F5F3",
"mX c #F6FAF3",
"MX c #FDFEF4",
"NX c #F6F5FB",
"BX c #FAF6FD",
"VX c #F6FBFB",
"CX c None",
"ZX c #F9F5F4",
"AX c #EFF5F1",
/* pixels */
"CXCXCXCXCXCXCXCXCXCXCXCXCXCXCXCXCXCXCXCXCXCXCXCXMXMXxXCXCXCXBXCXNXCXCXCXBXCXCXNXCXCXCXCXCXCXCXZXCXCXCXCXCXCXCXCXCXCXCXCXCXCXCXCX",
"CXCXCXCXCXCXCXCXCXCXCXCXCXCXCXCXCXCXCXCXCXCXCXCXCXCXCXCXZXMXCXCXCXZXMXnXMXCXCXCXCXNXNXCXCXCXCXCXCXCXCXCXCXCXCXCXCXCXCXCXCXCXCXCX",
"CXCXCXCXCXCXCXCXCXCXCXCXCXCXCXCXCXCXCXCXCXCXCXCXCXZXCXCXxXMXMXcXmXMXCXCXCXmXCXMXCXCXCXCXCXCXZXCXCXCXCXCXCXCXCXCXCXCXCXCXCXCXCXCX",
"CXCXCXCXCXCXCXCXCXCXCXCXCXCXCXCXMXMXMXMXCXCXCXCXCXCXCXMXMXcX6X@XMXMXmXmXCXCXCXCXCXCXCXCXCXCXZXCXCXCXCXCXCXCXCXCXCXCXCXCXCXCXCXCX",
"CXCXCXCXCXCXCXCXCXCXCXCXCXCXCXCXcXcXcXMXCXCXCXCXBXMXmXkXzX9X9.l oXxXcXMXMXkXvXMXjXCXCXnXCXCXCXCXCXCXCXCXCXCXCXCXCXCXCXCXCXCXCXCX",
"CXCXCXCXCXCXCXCXCXCXCXCXCXCXCXCXcXcXMXMXCXCXCXBXCXCXMXaXsX;Xx : m zXcXiXzXcXcXcXMXMXmXxXCXCXCXCXCXCXCXCXCXCXCXCXCXCXCXCXCXCXCXCX",
"CXCXCXCXCXCXCXCXCXCXCXCXCXCXCXCXCXMXCXCXCXCXMXZXMXcXzX$X}.|.w.j Q OXR.Q 0X0XdXaXiXlX@X8XMXxXCXZXCXCXCXCXCXCXCXCXCXCXCXCXCXCXCXCX",
"CXCXCXCXCXCXCXCXCXCXCXCXCXCXCXCXCXCXCXCXCXCXcXlX9XoXOXW , 7.7.7 x m i l ;Xl k.sXk.T.B ~.MXxXMXCXCXCXCXCXCXCXCXCXCXCXCXCXCXCXCXCX",
"CXCXCXCXCXCXCXCXCXCXCXCXCXCXCXCXCXBXCXBXCXkXzX$Xq.q.c.).R 7 * 7 f 7 j |.m.  x.pXQ a g.#XcXkXMXCXCXCXCXCXCXCXCXCXCXCXCXCXCXCXCXCX",
"CXCXCXCXCXCXCXCXCXCXCXCXCXCXCXCXNXCXCXNXMXzXpX,X7.v.r. XH.T j & 7 7.j b.7.* c.:X{.E.m !.aXcXvXMXCXCXCXCXCXCXCXCXCXCXCXCXCXCXCXCX",
"CXCXCXCXCXCXCXCXCXCXCXCXCXMXMXMXCXBXhXMXaXsXwXA.H.Z.a.a.Z.| 5 & r -Xr.a.| 7 7.* &X:Xn.OX9XcXjXMXCXCXCXCXCXCXCXCXCXCXCXCXCXCXCXCX",
"CXCXCXCXCXCXCXCXBXCXCXCXMXMXcXMXCXmXkXsXj.c.=Xr.$.| s.&.s.[ & % 3 L u.| s.| 3 | ].x.n.E.*XzXcXkXCXCXCXCXCXCXCXCXCXCXCXCXCXCXCXCX",
"CXCXCXCXCXCXCXCXCXCXCXMXMXcXcXzXsXeXE.q.% - } r 6 [ B.i.t.q | 6 @ 2 i.[ i.t.r  X>XA.+X{.dXzXcXcXCXCXCXCXCXCXCXCXCXCXCXCXCXCXCXCX",
"CXCXCXCXCXCXCXCXCXCXMXMXcXzXlXdXqXA.| R K | #.q 4 q t.L 4 & [ [ 3 N.%.X.~ [ 9 & r.} x.&XsXsXoXcXCXCXCXCXCXCXCXCXCXCXCXCXCXCXCXCX",
"CXCXCXCXCXCXCXCXCXCXmXMXcXiX#XE.t.0 ~ O.L H E L E q C.[ U U ~ C.-.;.-.<.<.N.H & q 7 7 :XeX).N `.mXMXCXCXCXCXCXCXCXCXCXCXCXCXCXCX",
"CXCXCXCXCXCXCXCXCXZXmXMXcX9XR.x ~ J +.~ [ 4 % E s.a.t.r.u.K L i.<.;.^ ~ { U N.P r e e qXm.a M *XkXnXZXCXCXCXCXCXCXCXCXCXCXCXCXCX",
"CXCXCXCXCXCXCXCXBXCXCXMXcXcX9Xy.O.) X.#.* T + ].-X'.|.7 7 = R s.$.i.K 4 T q $.f.q r - |.,Xx R h p 2XCXnXCXCXNXCXCXCXCXCXCXCXCXCX",
"CXCXCXCXCXCXCXCXCXBXCXCXxXlXzXwXL.G o.a.r.v.7 y.A.>Xy.+ h - & r.q U #.E 3 9 +.+.X.I r.[.=Xj R x R.tXCXCXCXCXBXCXCXCXCXCXCXCXCXCX",
"CXCXCXCXCXCXCXCXBXCXCXCXMXcXaX:X| 4 & v.A.% r E | &.R x.x - + 9 +.^ ^ G 9 _ >.( ( ` s.Z.p.7 R wXsXcXMXCXNXBXCXCXCXCXCXCXCXCXCXCX",
"CXCXCXCXCXCXCXCXCXCXZXnXMXuXQ.x.r.K 7 7..X} r X.U L T y.7.y.% 9 ^ *.) Y ! 3.( ( ( ,.=.Z.].v.x &XdXcXMXMXZXCXCXBXCXCXCXCXCXCXCXCX",
"CXCXCXCXCXCXCXCXnXCXCXCXrXl.p g R k < f v.p.~ ) ! 6 2 T y.b.4 G 0 @.{ B.S.D.*.( ! +.=.d.>X&XM.n.Q.9XcXcXCXCXBXCXCXCXCXCXCXCXCXCX",
"CXCXCXCXCXCXCXCXCXNXhXCXMX3Xg.: , 7 W :X].| ^ G ' _ & r [.r.6 V.) ) ~ C.C.N.D._ _ -.J.-X Xp.r.k {.zXcXcXMXCXMXCXCXCXCXCXCXCXCXCX",
"CXCXCXCXCXCXCXCXZXCXCXZXxXMXcX$Xm.7 6.qXG.#.J *.@.Y 6 % = 4 #.X.) ^ { $.[ P :.:.1.-.{ F.$.+.) ;.}.9XzXcXmXmXCXCXCXCXCXCXCXCXCXCX",
"CXCXCXCXCXCXCXCXCXBXCXCXMXMXrXoX, - - =X Xt.N.S.V.4 q 4 q P I Y ) ^ { [ C.s.=.;./ V.N.O.1.2.! ! 7.j.#XcXMXCXCXZXCXCXCXCXCXCXCXCX",
"CXCXCXCXCXCXCXCXCXZXCXCXnXMXrXN f v.H.i.J.C.i.s.u.#.& 3 i.%.H O.;.G + % d.J.C.J w J B.K.-.Y ' +.7.j.@XuXMXCXMXCXCXCXCXCXCXCXCXCX",
"CXCXCXCXCXCXCXCXCXMXCXCXjXMXMX6X+XA.C.i.-.%.s.p.[.d.E J +.-.%.%.& & + + T u.B./ w w C.XXs.s.0 C.:X9XzXcXMXCXZXCXCXCXCXCXCXCXCXCX",
"CXCXCXCXMXMXCXCXCXBXCXCXZXZXMXcX0XG.$.;.1.i.p.A.>X-XK.V.*.` ^ P $.3 + } a.u.+.^ 0 i.[.qX:X>Xw.M.sXsXcXcXMXCXCXCXCXCXCXCXCXCXCXCX",
"CXCXCXCXMXMXMXCXCXCXCXCXCXCXxXlXzX:XZ.B.-.[ 5 h W .XC.X.1.Y % [ | T T Z.f.;.:.*._ =.r.'.0XsX9X0XsXcXcXcXCXCXCXCXCXCXCXCXCXCXCXCX",
"CXCXCXCXMXMXMXCXCXCXNXnXCXCXMXMXkX0X-XXXB.i.| 5 R e $.C.` ) ;.#.4 9 L i.-.2.,.( ,._ f.} M.sXOXoX9XcXMXmXCXCXCXBXCXCXCXCXCXCXCXCX",
"CXCXCXCXMXMXMXCXMXCXCXNXCXCXCXCXCXMXeXA.[ [ P q | 4 H ;.-.^ / 0 2 L $.C.;.2.5.4.( :.f.Z.).+XQ a #XlXcXxXCXCXCXCXCXCXCXCXCXCXCXCX",
"CXCXCXCXCXMXCXCXZXCXCXCXCXCXMXZXBXCX!., = = 9 X.U 4 9 O.:.{ 0 4 9 [ | ] u.F.P.1.*.=.q ].>Xq.j W oXMXCXCXCXCXCXCXCXCXCXCXCXCXCXCX",
"CXCXCXCXCXCXCXCXCXMXBXCXCXCXCXCXCXbX3XE.v. .{ +.9 0 4 J B.{ 9 P q 7 7 e k 3 { S.D.J.y.w.wX}.x.n.T.xXCXMXCXCXCXCXCXCXCXCXCXCXCXCX",
"CXCXCXCXCXCXCXCXCXCXCXCXCXCXCXCXCXCXvXzXzX{.} P O.X.! _ %.Z.k j j j 7 j k 7 r.K.XXG.b.}.dXcXMXCXCXCXCXCXCXCXCXCXCXCXCXCXCXCXCXCX",
"CXCXCXCXCXCXCXCXCXCXCXCXCXCXCXCXZXCXMXMXCX9XA.Z.XXi.! ` K.v.# i + - h 6.w.8.b..X|.M.E.0XcXCXBXCXCXCXCXCXCXCXCXCXCXCXCXCXCXCXCXCX",
"CXCXCXCXCXCXCXCXCXCXCXCXCXCXCXCXBXCXMXMXCXlX&XG..Xb.[ #.-XE.X @ % % 7 7.,XeX+X+X;X$X$XzXcXMXCXCXCXCXCXCXCXCXCXCXCXCXCXCXCXCXCXCX",
"CXCXCXCXCXCXCXCXCXCXCXCXCXCXCXCXCXCXMXMXMXcX;Xm.n.&X'.].pXsXp @ % = } q.wXsXaXlXcXcXcXvXvXMXCXCXCXCXCXCXCXCXCXCXCXCXCXCXCXCXCXCX",
"CXCXCXCXCXCXCXCXCXCXCXCXCXCXCXCXCXCXCXMXCXMXdXQ.oXcXsXsXcXcXg.i * 5 } z pXcXMXCXZXCXCXCXMXMXMXxXCXCXCXCXCXCXCXCXCXCXCXCXCXCXCXCX",
"CXCXCXCXCXCXCXCXCXCXCXCXCXCXCXCXCXCXCXCXnXMXcXtXCXnXCXcXMXrXI.M k t c i zXMXCXBXCXBXBXCXCXMXMXMXCXCXCXCXCXCXCXCXCXCXCXCXCXCXCXCX",
"CXCXCXCXCXCXCXCXCXCXCXCXCXCXCXCXCXCXCXCXxXcXMXCXCXbXBXCXMXaXR.w.T  .c l yXvXZXCXCXCXBXCXCXmXMXCXCXCXCXCXCXCXCXCXCXCXCXCXCXCXCXCX",
"CXCXCXCXCXCXCXCXCXCXCXCXCXCXCXCXCXCXCXCXMXMXCXCXbXCXCXCXcXsXw.k |  .# < yXMXMXBXBXCXCXCXCXCXCXMXCXCXCXCXCXCXCXCXCXCXCXCXCXCXCXCX",
"CXCXCXCXCXCXCXCXCXCXCXCXCXCXCXCXCXCXCXCXMXMXCXCXCXbXCXxXsXwX|  .]  .# : +XcXvXCXCXCXCXCXCXCXCXCXCXCXCXCXCXCXCXCXCXCXCXCXCXCXCXCX",
"CXCXCXCXCXCXCXCXCXCXCXCXCXCXCXCXCXCXCXCXcXcXCXCXCXCXNXcXpXb.t.I t.e < # D zXcXMXMXCXCXCXCXCXCXCXCXCXCXCXCXCXCXCXCXCXCXCXCXCXCXCX",
"CXCXCXCXCXCXCXCXCXCXCXCXCXCXCXCXCXCXCXCXcXcXCXCXCXCXxXcX}.] ~ { ] 1 h > i 0XzXzXcXMXMXCXCXCXCXCXCXCXCXCXCXCXCXCXCXCXCXCXCXCXCXCX",
"CXCXCXCXCXCXCXCXCXCXCXCXCXCXCXCXCXCXCXCXcXMXCXCXCXMXMXzXv.| ~ O.$ } < h l $XaXcXcXMXMXCXCXCXCXCXCXCXCXCXCXCXCXCXCXCXCXCXCXCXCXCX",
"CXCXCXCXCXCXCXCXCXCXCXCXCXCXCXCXCXCXCXCXMXMXCXCXMXMXMXsX|. .=.5 8 p.# c M $XcXMXMXVXVXCXCXCXCXCXCXCXCXCXCXCXCXCXCXCXCXCXCXCXCXCX",
"CXCXCXCXCXCXCXCXCXCXCXCXCXCXCXCXCXCXCXCXMXCXCXCXMXkXMXyXM.8.t ;  . .1 e.n aXMXVXCXCXCXCXCXCXCXCXCXCXCXCXCXCXCXCXCXCXCXCXCXCXCXCX",
"CXCXCXCXCXCXCXCXCXCXCXCXCXCXCXCXCXVXCXCXCXCXCXCXCXrXCXyX9.} $ ] ..A Z 0.p lXmXNXCXCXCXCXCXCXCXCXCXCXCXCXCXCXCXCXCXCXCXCXCXCXCXCX",
"CXCXCXCXCXCXCXCXCXCXCXCXCXCXCXCXMXCXCXCXCXCXCXCXCXvXCXcX/.< c 8.] ] } 6.: 3XxXCXCXCXCXCXCXCXCXCXCXCXCXCXCXCXCXCXCXCXCXCXCXCXCXCX",
"CXCXCXCXCXCXCXCXCXCXCXCXCXCXCXCXCXCXCXCXCXVXVXCXCXCXxXvXfXu z.0. .t } c . R.cXmXCXCXCXCXCXCXCXCXCXCXCXCXCXCXCXCXCXCXCXCXCXCXCXCX",
"CXCXCXCXCXCXCXCXCXCXCXCXCXCXCXCXMXmXmXVXCXCXVXCXCXCXMXcX(.d h.F k ] } # # m W.rXxXCXCXZXCXCXCXxXCXCXCXCXCXCXCXCXCXCXCXCXCXCXCXCX",
"CXCXCXCXCXCXCXCXCXCXCXCXCXCXCXCXCXCXCXCXCXCXCXCXVXmXMXcXh.s 0.S e } e # . M b ~.MXCXCXCXCXnXnXCXCXCXCXCXCXCXCXCXCXCXCXCXCXCXCXCX",
"CXCXCXCXCXCXCXCXCXCXCXCXCXCXCXCXCXCXCXCXCXVXVXVXCXcXzX5Xl z F Z v k v < O 9.p b MXvXxXCXCXCXCXCXCXCXCXCXCXCXCXCXCXCXCXCXCXCXCXCX",
"CXCXCXCXCXCXCXCXCXCXCXCXCXCXCXCXCXMXVXCXCXAXAXmXmXrX$Xz.s n c z Z $ c $ z n l X ~.rXMXMXjXCXCXNXCXCXCXCXCXCXCXCXCXCXCXCXCXCXCXCX",
"CXCXCXCXCXCXCXCXCXCXCXCXCXCXCXCXCXCXmXmXjX7X1X<X~.Q.R.l l S c c 1 # < > S i : y p I.tXxXjXnXCXCXCXCXCXCXCXCXCXCXCXCXCXCXCXCXCXCX",
"CXCXCXCXCXCXCXCXCXCXCXCXCXCXCXCXnXxXhX1X<X<XW.Q V N M s l 6.c v O > O z S > . s O o B ~.xXCXNXCXMXMXCXCXCXCXCXCXCXCXCXCXCXCXCXCX",
"CXCXCXCXCXCXCXCXCXCXCXCXCXCXCXCXhXnX7X_.@X1XW.B C b l n l S h < > > d S 9.: i : a p B I.^.~.1XgXnXZXMXCXCXCXCXCXCXCXCXCXCXCXCXCX",
"CXCXCXCXCXCXCXCXCXCXCXCXCXCXCXCXhX7X4X1X1X<X~.W.@XN a m M < , h : u n 0.D i : y : p g.W.W.^.<XgXnXZXMXCXCXCXCXCXCXCXCXCXCXCXCXCX",
"CXCXCXCXCXCXCXCXCXCXCXCXCXCXCXCXMXjXtX4X1X@X^.Y.l.B b g i : < i y u b D D l a p b N I.^.~._.4XhXMXMXCXCXCXCXCXCXCXCXCXCXCXCXCXCX",
"CXCXCXCXCXCXCXCXCXCXCXCXCXCXCXCXCXMXjXhXtX7X2X_.Y.W.Q.k.N N 9.N s s b g.j.g.N V U.W.@X3X7X7XhXNXCXCXCXCXCXCXCXCXCXCXCXCXCXCXCXCX",
"CXCXCXCXCXCXCXCXCXCXCXCXCXCXCXCXCXCXMXZXCXCXmXjXtXtX6X#X`.Q.`.!.!.W.Q.@X%X@X@X%X8XtXjXmXCXMXMXCXCXCXCXCXCXCXCXCXCXCXCXCXCXCXCXCX",
"CXCXCXCXCXCXCXCXCXCXCXCXCXCXCXCXCXCXCXCXCXCXCXmXMXjXrXjXrXrXrX8XaXuXkXMXMXMXMXMXZXZXCXCXCXCXCXCXCXCXCXCXCXCXCXCXCXCXCXCXCXCXCXCX",
"CXCXCXCXCXCXCXCXCXCXCXCXCXCXCXCXCXCXCXCXCXCXCXZXCXCXCXVXmXCXVXMXcXMXMXMXCXVXCXCXCXCXCXCXCXCXCXCXCXCXCXCXCXCXCXCXCXCXCXCXCXCXCXCX",
"CXCXCXCXCXCXCXCXCXCXCXCXCXCXCXCXCXCXCXCXCXCXCXCXCXCXCXCXnXCXCXVXMXMXMXVXVXCXCXCXCXCXCXCXCXCXCXCXCXCXCXCXCXCXCXCXCXCXCXCXCXCXCXCX",
"CXCXCXCXCXCXCXCXCXCXCXCXCXCXCXCXCXCXCXCXCXCXCXCXCXNXVXCXCXCXCXVXMXMXmXmXVXCXCXBXCXCXCXCXCXCXCXCXCXCXCXCXCXCXCXCXCXCXCXCXCXCXCXCX"
};
