/* XPM */
static char *_91e0b90e7fd4db9fa1eee66137785dfHeRBFYe4DFf7gKI5[] = {
/* columns rows colors chars-per-pixel */
"64 64 209 2 ",
"   c #4086B7",
".  c #488BB6",
"X  c #448CBF",
"o  c #4491BD",
"O  c #5A98BD",
"+  c #6298BE",
"@  c #2D8DC9",
"#  c #398FC2",
"$  c #328ECD",
"%  c #3592CD",
"&  c #2F92D9",
"*  c #3394D4",
"=  c #3B97D7",
"-  c #3C99D6",
";  c #3294DA",
":  c #3997DB",
">  c #359BDC",
",  c #3C9BDC",
"<  c #3DA1DE",
"1  c #359CE4",
"2  c #3B9DE3",
"3  c #3E9EE8",
"4  c #3CA1E5",
"5  c #3DA4EB",
"6  c #458EC1",
"7  c #4592C4",
"8  c #4B92C2",
"9  c #4395CB",
"0  c #4896CE",
"q  c #4499CD",
"w  c #4B99CA",
"e  c #5396C3",
"r  c #529ACB",
"t  c #4197D0",
"y  c #429CD5",
"u  c #4A9CD4",
"i  c #429DDC",
"p  c #499ED9",
"a  c #4B97D3",
"s  c #569FD2",
"d  c #649FC2",
"f  c #5EA3CD",
"g  c #45A0D7",
"h  c #43A1DE",
"j  c #49A3DE",
"k  c #5DA3D3",
"l  c #58A8DD",
"z  c #51A3DD",
"x  c #65A3CF",
"c  c #6EA8CE",
"v  c #69A4CC",
"b  c #63A6D3",
"n  c #6FACD3",
"m  c #6CAEDB",
"M  c #65ACD8",
"N  c #76ADD4",
"B  c #6CB3DD",
"V  c #77B2D7",
"C  c #419FE2",
"Z  c #43A3E4",
"A  c #49A4E4",
"S  c #42A5EA",
"D  c #4AA6EA",
"F  c #44AAED",
"G  c #4BAAEC",
"H  c #50A4E0",
"J  c #53A9E5",
"K  c #52ACEB",
"L  c #5AA9E1",
"P  c #44A7F4",
"I  c #44AAF3",
"U  c #4DADF3",
"Y  c #50AFF3",
"T  c #4DB2FA",
"R  c #53B2F3",
"E  c #55B5FB",
"W  c #58B6FA",
"Q  c #54B9FF",
"!  c #5CB8F9",
"~  c #66AEE0",
"^  c #6AB2E4",
"/  c #65B2E8",
"(  c #71B8E6",
")  c #77B6E2",
"_  c #83B8D8",
"`  c #88B8D7",
"'  c #AABBC2",
"]  c #83BEE0",
"[  c #AEC3CA",
"{  c #B7C6CD",
"}  c #BAC5CD",
"|  c #BCCACE",
" . c #B7C7D6",
".. c #BDC7D0",
"X. c #B6C9D3",
"o. c #BCCCD4",
"O. c #BCCFDC",
"+. c #B7CDDA",
"@. c #BDD1DD",
"#. c #BDD0D4",
"$. c #8FC5E9",
"%. c #87C8EE",
"&. c #8AC2E5",
"*. c #96C7E8",
"=. c #93CAEE",
"-. c #9BCBEC",
";. c #97CBF0",
":. c #99D4F5",
">. c #A2CFEC",
",. c #A5D1EC",
"<. c #BCD2E2",
"1. c #BBD6E4",
"2. c #A3DBFE",
"3. c #A9D5F2",
"4. c #B5D7F0",
"5. c #BCDBF0",
"6. c #AAE1FF",
"7. c #B2E2FF",
"8. c #BDEDFF",
"9. c #B5EBFF",
"0. c #C3CFD7",
"q. c #C2CFD9",
"w. c #C4D1D7",
"e. c #C3D3DD",
"r. c #CAD4DC",
"t. c #CDD8DE",
"y. c #C3D5E1",
"u. c #C9D7E2",
"i. c #C5D9E3",
"p. c #CCDBE4",
"a. c #C3DBEA",
"s. c #CADCE9",
"d. c #D2DCE4",
"f. c #D1DFE9",
"g. c #CEE0E4",
"h. c #D2E2E6",
"j. c #D4E3EC",
"k. c #DAE5EC",
"l. c #DBE8EE",
"z. c #CDE5F2",
"x. c #C0E4FE",
"c. c #C3ECFF",
"v. c #CDEBFE",
"b. c #DAE6F0",
"n. c #D5E9F3",
"m. c #DBEAF3",
"M. c #D4ECFA",
"N. c #DDEEF9",
"B. c #C3F3FF",
"V. c #CDF4FF",
"C. c #D1F6FF",
"Z. c #DDF2FD",
"A. c #D6FCFF",
"S. c #DCFDFF",
"D. c #E4EEEF",
"F. c #E0E3EC",
"G. c #E3EDF5",
"H. c #E9EFF7",
"J. c #E1EFF9",
"K. c #E5F1F6",
"L. c #EAF1F7",
"P. c #E4F3FC",
"I. c #EBF5FD",
"U. c #E4FDFF",
"Y. c #ECFDFF",
"T. c #F4F5F7",
"R. c #FBF7F3",
"E. c #F7FCF6",
"W. c #FEFCF5",
"Q. c #F6F7F9",
"!. c #FBF7F8",
"~. c #F7FFFF",
"^. c #F4FFFF",
"/. c #F4FEFF",
"(. c #FFFDF9",
"). c #FFFEF8",
"_. c #FFFFF8",
"`. c #FFFDFA",
"'. c #FFFDFB",
"]. c #FFFEFA",
"[. c #FFFFFA",
"{. c #FFFEFB",
"}. c #FFFFFB",
"|. c #FEFFFB",
" X c #FCFEFA",
".X c #FAFBFD",
"XX c #FEFAFD",
"oX c #F8FFFF",
"OX c #F9FFFF",
"+X c #FBFFFF",
"@X c #FAFFFF",
"#X c #FAFDFE",
"$X c #FFFDFD",
"%X c #FFFCFD",
"&X c #FCFFFD",
"*X c #FCFEFD",
"=X c #FFFEFD",
"-X c #FEFFFD",
";X c #FFFFFD",
":X c #FFFDFF",
">X c #FFFDFE",
",X c #FCFFFF",
"<X c #FDFEFF",
"1X c #FFFEFF",
"2X c #FEFFFF",
"3X c white",
"4X c #FEFEFF",
"5X c #FDFDFF",
"6X c #FDFEFE",
/* pixels */
"3X3X3X3X3X3X3X3X3X3X3X3X3X3X3X}.}.W.}.}.3X3X3X3X3X3X3X3X3X}.}.}.W.}.3X3X3X3X3X}.}.}.3X3X3X}.}.}.3X3X3X3X3X3X3X3X3X3X3X3X3X3X3X3X",
"3X3X3X3X3X3X3X3X3X3X3X3X3X3X3X3X}.}.}.}.3X3X3X3X3X3X3X3X3X3X3X}.}.}.3X3X3X3X+X3X}.}.3X3X3X3X3X3X3X3X3X3X3X3X3X3X3X3X3X3X3X3X3X3X",
"3X3X3X3X3X3X3X3X3X3X3X3X3X3X3X3X3X3X3X3X3X3X3X+X3X3X}.}.3X3X+X+X}.}.3X3X+X+X+X+X+X3X3X3X3X3X+X+X3X3X3X3X3X3X3X3X3X3X3X3X3X3X3X3X",
"3X3X3X3X3X3X3X3X3X3X3X3X3X3X3X3X+X+X3X3X3X3X+X+X3X3X}.}.3X3X+X+X3X3X3X3X3X3X+X+X+X+X3X3X3X+X+X+X3X3X3X3X3X3X3X3X3X3X3X3X3X3X3X3X",
"3X3X3X3X3X3X3X3X3X3X3X3X3X3X3X3X+X+X+X3X3X+X+X3X3X3X}.W.W.}.3X+X+X3X3X3X}.}.3X3X+X+X+X+X+X+X+X+X3X3X3X3X3X3X3X3X3X3X3X3X3X3X3X3X",
"3X3X3X3X3X3X3X3X3X3X3X3X3X3X3X3X+X+X3X3X3X3X3X3X3X3X}.}.W.}.}.3X+X3X3X}.W.W.}.3X3X+X+X+X+X+X3X3X3X3X3X3X3X3X3X3X3X3X3X3X3X3X3X3X",
"3X3X3X3X3X3X3X3X3X3X3X3X3X3X3X3X3X3X}.}.W.W.W.W.}.3X3X3X3X3X3X3X3X+X3X}.W.W.}.}.3X3X3X}.}.}.3X3X3X3X3X3X3X3X3X3X3X3X3X3X3X3X3X3X",
"3X3X3X3X3X3X3X3X3X3X3X3X3X3X3X3X3X3X}.}.W.W.W.W.}.3X+X+X+X3X3X}.3X3X3X}.}.}.}.}.3X3X3X3X}.}.3X3X3X3X3X3X3X3X3X3X3X3X3X3X3X3X3X3X",
"3X3X3X3X3X3X3X3X3X3X3X3X3X3X3X3X3X%X3X+X+X3X}.W.}.3X+X^.+X+X}.}.3X3X+X+X^.+X3X3X3X3X^.+X+X3X}.3X3X3X3X3X3X3X3X3X3X3X3X3X3X3X3X3X",
"3X3X3X3X3X3X3X3X3X3X3X3X3X3X3X3X}.3X+X+X^.^.3X}.}.+X/.Y.U.Y.Y.P.P.Y.Y.Y.Y.Y.+X3X3X3X^.^.^.Q.3X%X3X3X3X3X3X3X3X3X3X3X3X3X3X3X3X3X",
"3X3X3X3X3X3X3X3X3X3X3X3X3X3X3X3X}.}.+X+X+X3X}.!.3XY.U.B.2.( b k ( M B :.8.U./.3XR.3X3X+X+X+X3X3X3X3X3X3X3X3X3X3X3X3X3X3X3X3X3X3X",
"3X3X3X3X3X3X3X3X3X3X3X3X3X3X3X3X}.}.3X.X3X3X.X+X/.x.N ~ p i G R , Z y 9 f _ v.Y.+X3X3X3X%X3X%X3X3X3X3X3X3X3X3X3X3X3X3X3X3X3X3X3X",
"3X3X3X3X3X3X3X3X3X3X3X3X3X3X3X3X3X%X3X}.W././.S.&.8 J Z F E G i K Z D U i u k ;.U./.^.3XW.}.}.}.3X3X3X3X3X3X3X3X3X3X3X3X3X3X3X3X",
"3X3X3X3X3X3X3X3X3X3X3X3X3X3X3X3X3X%X}.}.3X/.S.] 7 R > T T S D Z , Z F 5 P 3 G r $.S.^.3X}.W.W.W.3X3X3X3X3X3X3X3X3X3X3X3X3X3X3X3X",
"3X3X3X3X3X3X3X3X3X3X3X3X3X3X3X3X3X3X}.+X^.U.=.6 K = W G i Z 4 S F Z Z F P U 2 9 . 3.Y.Q.3X}.}.3X3X3X3X3X3X3X3X3X3X3X3X3X3X3X3X3X",
"3X3X3X3X3X3X3X3X3X3X3X3X3X3X3X3X3X3X3X^.U.7.X L , R D Z Z Z 5 4 4 Z D G Z : > i q O C.^.3X}.+X3X3X3X3X3X3X3X3X3X3X3X3X3X3X3X3X3X",
"3X3X3X3X3X3X3X3X3X3X3X3X3X}.}.3X3X+X3X^.A.b a i R Z Z D 2 5 5 4 F F Z = * , Z Z Z w ` Y.+X.X3X3X}.}.}.3X3X3X3X3X}.}.}.}.3X3X3X+X",
"3X3X3X3X3X3X3X3X3X3X3X3X3X3X}.3X+X3X3X/.:.7 C U Z < A 2 5 > 2 F 4 : = i Z C Z 4 4 y d C./.3X3X3XE.}.}.3X3X%X3X3X}.}.}.}.3X3X+X+X",
"3X3X3X3X3X3X3X3X3X3X3X3X3X3X3X3X3X}.W./.n q G S 4 4 Z 3 4 F Z , = , Z S 1 ; ; : > h o 6.Y./.3X3X3X+X+X+X+X3X3X.X3X}.}.}.3X3X3X3X",
"3X}.3X}.3X3X3X3X3X3X3X3X3X3X3X3X}.}.3XY.f h F 2 4 > 2 D , , = i h Z S 5 1 1 2 , : , # %.U.Y.+X+X^.^.+X+X+X+X+X3X3X3X3X}.3X3X3X3X",
"}.}.}.}.}.}.}.3X3X3X3X3X3X3X3X3X3X3X3Xv.r Z 3 2 > 4 3 ; Z i i Z S 5 4 2 2 2 i Z h j y B c.a.s.p.p.p.K.Y.^.^.I.+X+X3X3X3X3X3X3X3X",
"3X3X3X3X3X3X3X3X3X3X3X3X3X3X3X3X3X+X^.5.w 4 2 2 < * & 4 G h i Z 5 5 4 2 2 2 , , < h g B c.M.M.Z.N.f.f.O.u./.^./.+X+X3X3X3X3X3X3X",
"+X+X3X3X3X3X3X3X3X3X3X3X3X3X3X3X^.^.^.c.7 * : , @ * 3 U = , Z 2 S Z i i D R S > 4 - % M U.^.^.^.^.^.Y.^.j.{ K.^.^.^.+X3X3X3X3X3X",
"3X3X3X3X3X3X3X3X3X3X3X+X+X+X+X^.^./.Y.C.X $ , $ - h S S Z = 4 S S h y p A 4 1 5 4 h h m Y.Q.+X+X^./.^.Y.^.I.{ l.^.^.+X+X3X3X3X3X",
"!.}.!.}.3X3X3X+X^.+X/.Y.U.Z.M.Z.Z.N.P.A.8 $ $ i h Z 5 5 R , 2 S Z Z - - : 2 4 5 2 A t n Y.}.}.}.+X+X+X+X^.+X/.| G.^.^.+X+X3X3X3X",
"W.}.!.}.3X3X+X+XG.o.e.@.i.a.a.y.u.p.@.4.b 9 i i Z S 5 S D G ; I 4 Z , - 2 4 5 4 Z j 9 =./.W.}.3X3X3X+X3X+X+X+XK.} /.^./.+X3X%X3X",
"3X+X3X+X^.+X/.0.0.I./.^./.+X+X+X+X/.^.Y.2.r p C 5 5 5 S Z K 2 5 1 5 4 , Z 2 S Z h u e 3.^.}.Q.3X3X3X}.3X3X.X+X+Xt.h.^.^.+X3X3X3X",
"+X^.^.^.^./.G.e.^.^.+X+X+X3X3X3XT.3X/./.S.c 0 i 5 5 S S A Z E & 5 5 ; * Z 5 D C i s + A.^.}.3X3X}.}.}.}.3X3X+X^.^.| Y.^.^.+X3X3X",
"+X+X^.+X^./.J.e.^./.+X+X3X3X3X3X3X3X+X^.Y.,.8 i 5 I S Z G Z W 3 1 4 , A F S 2 - H r 3./.}.W.3X.X3X}.}.}.3X3X3X+X+Xr.G.^.^.+X3X3X",
"3X}.3X+X/.^./.e.e.^.^.^.+X3X3XW.3X.X3X3X+XU.n 9 Z U Z A Z G S Q * ; = Z 4 h p l r V U./.3X}.3X3X3X}.}.}.3X3X3X3X^.m.u.^.^.+X3X}.",
"W.}.}.3X3X+X^.^.u.e./.+X^.+X}.}.3X3X}.}.R.^.B.7 A Z J j i Y 2 Q F = 2 F Z p e d *.U./.3X3X3X!.}.+X X3X3X3X3X.X+X+XK.e.^.^.+X3X}.",
"}.}.}.3X3X+X+X^.^.u.u.Y.^.^.}.}.3X+X}.W.W.+XU.9.k 0 / u j U I 5 ! y A y 0 x -.A.Y.Y.+X.X3X3X3X3X}.}.3X3X3X3X3X+X^.G.d./.^.+X3X3X",
"}.3X3X3X3X3X%X3X3X^.a.a./.+X}. X+X+X3X}.}.3X^.Y.A._ x r z i R , J L   v >.S./.+X+X3X3X3X3X3X}.}.W.W.}.3X3X+X3X3X.XF.d.^.+X+X+X3X",
"3X3X%X3XW.3X3X3XQ.^.U.<.^.+X X3X+X+X3X}.}.}.3X+X^.U.V.-.) b ^ ^ m :.7.S.Y.+X3X}.}.}.3X3X3X3X}.}.}.W.W.3X3X3X3XQ.+Xr.H.+X+X+X+X+X",
"3X!.3X3X}.}.+X^.+X^.U.X.^.3X+X3X3X3X3X}.}.}.}.}.Q.+X^.Y.Y.Y.U.U.U.Y./.^.+X}.3X}.3X3X3X3X+X+X3X3X+X+X3X}.3X3X+X/.N.e.^.+X3X3X3X3X",
"%X3X!.3XW.3X^.^./.P.[ K.+X.X3X3X3X3X3X3X}.}.}.}.}. X+X3X3X3X3X3X3X3X.X}.}.}.3X3X3X3X+X+X+X3X3X3X+X+X3X3X3X+XY./.e.m./.+X3X3X3X3X",
"3X3X3X3X}./.Y./.z.o.D.3X3X.X3X3X3X3X3X}.}.}.}.3X+X^.+X+XQ.3X3XW.}.W.W.}.}.E.3X+X+X+X+X+X3X3X3X3X+X+X^.^.^.^./.#.g.^.^.+X3X3X}.3X",
"3X3X%X%XE.^.Y.X.1.Y. X}.+X3X%X3X3X3X}.}.}.3X3X3XQ.+X+X+X3X3X3X}.W.W.W.}.3X3X3X+X+X3X3X3X3X3X3X3X3X+X^.Y.Y.Z.o.h./.^.+X+X3X3X3X3X",
"!.3X3X3X^.I.' P././.}.}..X3X3X3X3X3X3X3X3X3X3X3X3X3X+XQ.3X+XQ.3X3X3X3X+X^.+X+X3X3X3X3X3X3X3X3X+X3X+XY.Y.i.o.P.^.+XE.+X+X3X3X3X3X",
"3X3X3X+X^.X.Y.^./.+X}.W.3X3X3X3X3X3X3X3X3X3X3X3X%X3X3X3X3X+X+X+X^.^.^.^./.^.^.+X3X3X3X3X+X+X^./.L.d.0.o.b./.^.+X+X3X3X3X3X3X3X3X",
"3X.X3X+XP.+.^.Q.3X+X3X}.3X3X+X+X+X+X3X3X3X3X}.}.}.}.}.!.3X+X+X^.Z.v.z.a.a.y.y.e.r.r.r.e.O.+.<.<.u.j.L.+X3X3X3X3X3X3X3X3X3X3X+X3X",
"}.}.+X+XM.a.+X3X3X3X+X3X3X3X3X+X+X3X3X3X3X3X}.}.W.}.}.3X3X^.K...y.a.z.M.Z.Z.P.Y.I.I.Y.Y.Y.Y.Y.Y.Y./.+X3X}.}.3X3X.X3X3X3X X}.+X+X",
"E.3X.X^.U.<.3X%X3X3X3X+X3X3X3X3X3X3X3X3X3X3X3X}.}.3X+X+X^.m.O.P.^.^.+X+X+X+X+X+X3X+X3X+X+X+X^.^.^.^.+X3X3X3X3X%X3X3X%X3X3X3X+X+X",
" X+X3X+XY.+.Q.%X3X3X+X+X3X3X3X3X3X3X3X3X3X3X3X3X3XE.+X^.^. .U./.+X3X X.X}.3X3X3X+X3X3X3X3X3X3X3X+X^.^.^.+X+X3X3X.X3X3X3X+X3X+X+X",
"3X X+X+X/.k.w.+X%X.X^.^.3X3X3X3X3X3X3X3X3X3X+X}.E.}.3X+XI.0.^.^.^.3X3X3X3X3X3X3X3X+X+X+X3X}.}.}.3X+X^././.^.^..X3X%X3X3X+X3X3X X",
"3X3X3XQ.+X^.o.k.+X+X^.^.3X3X3X3X3X3X3X3X3X3X+X3X}.}.}.3X+X..K./.^.+X+X+X X3X3X^././.^.^.+X+X3X3XQ.L.k.s.a.j.J.Y.^.+XQ.+X3X+X3X}.",
"3X.X3X3X}.+XY.o.K.^.^.^.3X3X%X3X}.}.}.3X3X3X3X3X3X3X3XQ.^.P.X.n././.^.^.+X+X+X^./.Y.U.Z.M.s.e.O.q.u.j.n.n.j.i.@.e.U.^.+X3X3X!.}.",
"3X3X3X3X}.+X^.P.{ K.^.+X3X3X+X3X}.}.}.3X3X3X3X3X3X3X3X+X^.^.Y.i.+.p.m.K.G.l.j.p.y.<.<.1.a.n.P.Y./.^.^.^.^.^./.Y.n.[ P.^.Q.3X}.}.",
"3X3X3X3X3X3X+X^.L.} d.^./.Y.^.^.3X3X3X3X3X3X3X3X3X3X3X3X3X3X+X^.Y.m.i.e.e.u.j.b.K.Y.^.+X+X+X+X+X+X+X+X+X+X+X+X^./.N.+./.^.+X3X3X",
"3X3X3X3X3X3X3X+X+X^.t.{ m./.Y.^.+X3X3X3X3X3X3X+X+X+X+X+X+X+X3X+X/.Y.Y././.Y.Y./.^.^.^.^.+X3X}.}.+X+X3X3X}.3X3X+X^./.e.J.^.+XQ.3X",
"3X3X3X3X3X3X3X+X+X/.^.Y.r...p.P.^.^.^.^.^.^.+X+X+X^.+X+X^.^.^./././.Y.Y.U.U.U.U.U.Y./././.^.+X+X+X3X3X3X}.3X3X3X+X^.d.G.+X.X3X}.",
"3X3X3X3X3X3X3X3X+X+X+X^.^./.k.0.o.e.p.b.K.P.I.I.Y.I.I.P.m.k.f.p.u.e.O.O.@.<.<.@.@.@.@.i.j.P.Y.^.^.^.+X+X.X+X3X+X+X+X} /.+X3X}.}.",
"3X3X3X3X3X3X3X3X+X+X+X+X^.^.+X+X/.I.m.s.u.e.e.e.e.e.e.u.p.f.b.b.G.I./.^.^.^.^.^.^.^./.J.f.e.e.y.P.U././.^.^././.K.o.k.^.^.+XQ.3X",
"3X3X3X3X3X3X3X3X.X+X3X+X3X3X+X^.+X+X^.^.^./././././././.^.^.^.+X+X+X+X3X+X3X3X3X3X3X+X+X^.^.Y.N.O.<.u.e.e.e.e.w.o.K././.^.+X3X}.",
"3X3X3X3X3X3X3X3X3X3X3X3X3X3X3X3X+X+X^.^.^.^.+X+X^.^.+X+X+X+X+X+X3X}.W.}.}.}.}.}.}.3X3X3X3X+X+X^.^./.I.G.G.L./.+X+X^.+X+X3XE.}.}.",
"3X3X3X3X3X3X3X3X3X3X3X3X3X3X3X3X3X+X+X+X3X3X3X3X3X3X3X3X+X+X+X3X3X}.}.}.}.W.W.}.}.}.}.3X3X3X3X3X+X+X+X3X3X3X3X3X+X3X3X3X!.}.}.}.",
"3X3X3X3X3X3X3X3X3X3X3X3X3X3X3X3X3X3X3X3X3X3X3X3X3X3X3X3X3X3X3X3X3X3X3X3X3X}.}.}.}.}.3X3X3X3X3X+X+X+X+X+X+X3X3X+X+X+X+X3X3X3X}.}.",
"3X3X3X3X3X3X3X3X3X3X3X3X3X3X3X3X3X}.3X}.3X}.3X}.3X}.3X}.3X}.3X3X3X3X3X3X3X3X3X3X3X3X3X3X3X3X3X3X3X3X3X+X3X3X3X3X+X+X+X+X3X3X3X3X",
"3X3X3X3X3X3X3X3X3X3X3X3X3X3X3X3X3X3X3X3X3X3X3X3X3X3X3X3X3X3X3X3X+X^.+X+X3X3X3X3X3X3X3X3X3X+X+X+X3X3X3X3X3X3X3X3X3X3X3X3X3X3X3X3X",
"3X3X3X3X3X3X3X3X3X3X3X3X3X3X3X3X3X3X3X3X3X3X3X3X3X3X3X3X3X3X3X3X+X+X+X+X3X3X3X3X3X3X3X3X3X3X3X3X3X3X3X3X3X3X3X3X3X3X3X3X3X3X3X3X",
"3X3X3X3X3X3X3X3X3X3X3X3X3X3X3X3X3X+X3X3X3X3X3X3X3X3X3X3X3X3X+X+X3X3X3X3X3X3X3X3X3X3X3X3X3X3X3X}.}.}.}.}.3X3X}.}.}.}.}.3X3X3X3X3X",
"3X3X3X3X3X3X3X3X3X3X3X3X3X3X3X3X+X+X3X3X3X3X3X3X3X3X3X3X3X3X+X+X3X3X3X3X3X3X3X3X3X3X3X3X3X}.3X}.}.}.}.3X3X3X3X}.}.}.}.}.3X3X3X3X",
"3X3X3X3X3X3X3X3X3X3X3X3X3X+X+X3X3X3X3X3X3X3X3X3X3X3X3X3X3X3X3X3X}.}.}.}.3X3X3X3X3X3X3X3X3X3X3X3X3X3X3X3X3X3X3X3X3X3X3X3X3X3X3X3X",
"3X3X3X3X3X3X3X3X3X3X3X3X+X+X+X3X3X3X3X3X3X3X3X3X3X3X3X3X3X3X3X3X}.}.}.}.3X3X3X3X3X3X3X3X3X3X3X3X3X3X3X3X3X3X3X3X3X3X3X3X3X3X3X3X"
};
