/* XPM */
static char *_7665dde0f954d16e14e4d42a20d97dfpm5oZtfyCWLFHLpb[] = {
/* columns rows colors chars-per-pixel */
"64 64 7 1 ",
"  c black",
". c #3C2504",
"X c #F00B0B",
"o c #76D51B",
"O c #D5CA1B",
"+ c #B91DAC",
"@ c white",
/* pixels */
"OOOOOOOOOOOOOOOOOOOOOOOOOOOOOOOOOOOOOOOOOOOOOOOOOOOOOOOOOOOOOOOO",
"OOOOOOOOOOOOOOOOOOOOOOOOOOOOOOOOOOOOOOOOOOOOOOOOOOOOOOOOOOOO....",
"OOOOOOOOOOOOOOOOOOOOOOOOOOOOOOOOOOOOOOOOOOOOOOOOOOOOOOOOOOOO....",
"OOOOOOOOOOOOOOOOOOOOOOOOOOOOOOOOOOOOOOOOOOOOOOOOOOOOOOOOOOOO....",
"OOOOO......OOOOOOOOOOOOOOOOOOOOOOOOOOOOOOOOOOOOOOOOOOOOOOOOOOOOO",
"OOOOO......OOOOOOOOOOOOOOOOOOOOOOOOOOOOOOOOOOOOOOOOOOOOOOOOOOOOO",
"OOOOO......OOOOOOOOOOOOOOOOOOOOOOOOOOOOOOOOOOOOOOOOOOOOOOOO     ",
"OOOOO......OOOOOOOOOOOOOOOOOOOOOOOOOOOOOOOOOOOOOOOOOOOOOO       ",
"OOOOOOOOOOOOOOOOOOOOOOOOOOOOOOOOOOOOOOOOOOOOOOOOOOOO            ",
"OOOOOOOOOOOOOOOOOOOOOOOOOOOOOOOOOOOOOOOOOO                      ",
"OOOOOOOOOOOOOOOOOOOOOOOOOOOOOOOOOOOOO                           ",
"  OOOOOOOOOOOOOOOOOOOOOOOOOOOO                                  ",
"     OOOOOOOOOOOO                                               ",
"                                                                ",
"                                                                ",
"                                                                ",
"                                                  oo            ",
"                              o                                 ",
"                 o                                              ",
"                                     o                          ",
"        o                                                       ",
"                                                o               ",
"                                o                               ",
"                        o                                       ",
"                                         o                      ",
"                                                                ",
"                                                         o      ",
"                                                                ",
"                                                                ",
"                                                                ",
"                                                                ",
"                     o                                          ",
"                            X       X      o                    ",
"                            X      XX                           ",
"                            X      X                            ",
"                           X       X                            ",
"           o               X      XX                            ",
"                           X  o   X                  o          ",
"                   +++     X      X            o                ",
"                 ++++++           X     +++                     ",
"                 ++++++               +++++                     ",
"                 +++++                ++++++                    ",
"                 ++++                 ++++++                    ",
"                  ++                  +++++                     ",
"                                                                ",
"                                           X                    ",
"           o         X       o             X                    ",
"                     XX           o       XX                    ",
"                      X                   X        o            ",
"                      XXX                 X                     ",
"                         XX               X                     ",
"                         @ XXXXX          X                     ",
"                         @      XXX      XX                     ",
"                         @      @  XXXXXXX                      ",
"                         @      @                               ",
"                         @      @                               ",
"                         @      o                               ",
"                         o      @                               ",
"                                o                               ",
"                                                                ",
"                                                                ",
"                                                                ",
"                                                                ",
"                                                                "
};
