/* XPM */
static char *a09b03c7f7044d0ef3cc2bb02f077b1dAWr7v4VvSqPPgHrE[] = {
/* columns rows colors chars-per-pixel */
"64 64 248 2 ",
"   c #736E7A",
".  c #941B0F",
"X  c #9A2514",
"o  c #AD2C1B",
"O  c #A72715",
"+  c #B42D1B",
"@  c #B92C1A",
"#  c #A9321B",
"$  c #BC331D",
"%  c #B6321E",
"&  c #A1200B",
"*  c #993626",
"=  c #8B2F22",
"-  c #BD3522",
";  c #BC3B25",
":  c #AF3426",
">  c #C3351E",
",  c #C9371D",
"<  c #C22F1B",
"1  c #C33621",
"2  c #CA3522",
"3  c #C43923",
"4  c #CB3B24",
"5  c #CC3D2A",
"6  c #C33C29",
"7  c #D33D26",
"8  c #D43E29",
"9  c #DC3F29",
"0  c #D93C26",
"q  c #D03729",
"w  c #E13E29",
"e  c #BA4328",
"r  c #A54736",
"t  c #B44C34",
"y  c #AC5533",
"u  c #CD422A",
"i  c #C7452A",
"p  c #D54126",
"a  c #D5432B",
"s  c #DB432B",
"d  c #D44A2D",
"f  c #DA492E",
"g  c #DA4226",
"h  c #CA4B35",
"j  c #DB4531",
"k  c #D74A32",
"l  c #CA553A",
"z  c #D7573B",
"x  c #DC5128",
"c  c #E2432C",
"v  c #E6482F",
"b  c #E24C35",
"n  c #D0693B",
"m  c #F06B3E",
"M  c #A95646",
"N  c #B35A46",
"B  c #B2634C",
"V  c #B7725C",
"C  c #B06B55",
"Z  c #8D7678",
"A  c #B17669",
"S  c #9C5342",
"D  c #D45941",
"F  c #C55A49",
"G  c #DD6544",
"H  c #DA754B",
"J  c #C06459",
"K  c #E46948",
"L  c #E6724E",
"P  c #EA724A",
"I  c #EA7757",
"U  c #EA6E52",
"Y  c #9B837E",
"T  c #BA8776",
"R  c #B68972",
"E  c #E9855D",
"W  c #E79553",
"Q  c #CE8B77",
"!  c #E2937D",
"~  c #EDAE6D",
"^  c #DD9A5A",
"/  c #F7C575",
"(  c #1364AC",
")  c #1368AB",
"_  c #1869A9",
"`  c #1769B2",
"'  c #116BAE",
"]  c #2272AE",
"[  c #2D7BB5",
"{  c #2775B3",
"}  c #337DB6",
"|  c #2569B2",
" . c #11669C",
".. c #5D7289",
"X. c #586E86",
"o. c #687288",
"O. c #3985BA",
"+. c #438ABD",
"@. c #4C8EBE",
"#. c #6F90A4",
"$. c #7AA6BA",
"%. c #7C9599",
"&. c #3F8AC1",
"*. c #458EC1",
"=. c #4B93C5",
"-. c #4A97C5",
";. c #539CC6",
":. c #569CC7",
">. c #5BA3CC",
",. c #57A2CA",
"<. c #59A4D1",
"1. c #63ABCD",
"2. c #65A7C9",
"3. c #66ADD1",
"4. c #6CB2D3",
"5. c #73B3D5",
"6. c #7AB7D7",
"7. c #6BB3CD",
"8. c #9C938E",
"9. c #B79688",
"0. c #AE938C",
"q. c #BBAB9A",
"w. c #B0A791",
"e. c #91AFB8",
"r. c #B2B3AC",
"t. c #C99B89",
"y. c #D59E8B",
"u. c #DA9C87",
"i. c #C59895",
"p. c #C7A38D",
"a. c #C5A997",
"s. c #DAAB98",
"d. c #C5B19C",
"f. c #CAB39C",
"g. c #D7B598",
"h. c #CCBBAA",
"j. c #C8B7A5",
"k. c #D3BBA7",
"l. c #C9BCB1",
"z. c #D0B4A8",
"x. c #E6BEB0",
"c. c #E19D8B",
"v. c #CDC4AF",
"b. c #D2C2AB",
"n. c #D9C3A8",
"m. c #CDC4B4",
"M. c #CDC8B8",
"N. c #D3C5B3",
"B. c #D4CAB5",
"V. c #DBCAB4",
"C. c #D4CBBB",
"Z. c #DCCDBB",
"A. c #D9C6B5",
"S. c #DDD4BC",
"D. c #E2CDBC",
"F. c #E3CAB9",
"G. c #E4D3BE",
"H. c #E8D6BE",
"J. c #E9C0AA",
"K. c #83BDD5",
"L. c #86BDD7",
"P. c #8CC2D9",
"I. c #93C4DC",
"U. c #98C8DB",
"Y. c #A4CCDB",
"T. c #AAD2DF",
"R. c #B7D1D7",
"E. c #9AC9E1",
"W. c #A3CDE2",
"Q. c #A8CEE1",
"!. c #ACD2E3",
"~. c #A7D2E5",
"^. c #B2D5E4",
"/. c #BCDDEB",
"(. c #B7D9E7",
"). c #BFE0EC",
"_. c #C8CDC9",
"`. c #DED3C4",
"'. c #DDD5CB",
"]. c #DBD9C6",
"[. c #DDDDD4",
"{. c #DDDBD8",
"}. c #D8CCC2",
"|. c #E4D5C3",
" X c #E9D6C4",
".X c #E4D9C5",
"XX c #E9D9C5",
"oX c #E3D6C9",
"OX c #E5DBCB",
"+X c #EBDCCB",
"@X c #E9D6CA",
"#X c #E4DDD3",
"$X c #EBDDD1",
"%X c #E4DEDB",
"&X c #E5DCD5",
"*X c #EDD6C6",
"=X c #DEE5DA",
"-X c #EBE1CF",
";X c #F1E2CF",
":X c #E3E2D6",
">X c #EBE2D4",
",X c #E4E3DB",
"<X c #ECE4DB",
"1X c #E8EBDA",
"2X c #F2E6D9",
"3X c #C5DEEB",
"4X c #C4E1EC",
"5X c #CBE4EC",
"6X c #CAE2E6",
"7X c #DCECEE",
"8X c #D8E7EA",
"9X c #CCE5F1",
"0X c #D6EBF3",
"qX c #DBECF4",
"wX c #D8EAF7",
"eX c #DDF0F3",
"rX c #E5E5E5",
"tX c #E9E6E4",
"yX c #E5E9E4",
"uX c #EBEAE5",
"iX c #E5E6E9",
"pX c #E9E5EA",
"aX c #E6EAEA",
"sX c #ECECEC",
"dX c #F2EBE3",
"fX c #F1EEEB",
"gX c #F2E5E1",
"hX c #EDF2EC",
"jX c #E8F1E8",
"kX c #F3F2ED",
"lX c #F9F6EE",
"zX c #EEEEF1",
"xX c #E3EAF3",
"cX c #F2EEF1",
"vX c #F8EEF0",
"bX c #EEF1F1",
"nX c #EDF7F6",
"mX c #F3F4F4",
"MX c #F9F6F3",
"NX c #F5F9F5",
"BX c #FBF9F5",
"VX c #F5F5F9",
"CX c #FBF6FA",
"ZX c #F4FAFB",
"AX c #F9F9F9",
"SX c #FEFEFE",
"DX c #FCFCFC",
"FX c #E5DFE1",
/* pixels */
"aXaXsXSXAXmXsXsXsXAXAXAXsXsXsXAXSXAXsXaXaXAXDXAXjXuXhXDXCXNXuXzXfXMXSXCXsXzXzXVXCXCXzXaXaXAXSXAXsXsXsXMXAXDXkXuXuXAXAXAXsXsXaXmX",
"iXiXsXSXSXmXaXiXsXDXSXAXaXrXaXAXSXmXaXiXsXSXSXAXpXpXaXAXDXZXuXrXxXDXDXBXsXFXsXSXDXDXsXiXsXSXSXAXaXiXiXAXSXAXsXiXiXAXSXSXaXtXiXDX",
"mXmXmXNXmXmXbXbXmXmXmXmXmXmXmXmXmXmXmXsXsXzXmXmXkXvXnXmXCX+Xy.Q i.$XbXnXZXvXMXkXhXkXMXkXcXfXmXAXmXmXmXmXVXmXmXmXmXmXmXmXmXmXmXmX",
"SXSXmXiXrXzXDXSXAXaXiXsXSXSXSXsXiXsXSXSXSXaXiXaXDXSXNXsXgXs.G h X r T }.NXZXDXsXtXsXCXSXSXsXiXyXAXSXSXsXrXiXVXSXSXbXiXrXDXSXSXsX",
"mXAXmXsXsXmXBXAXmXaXsXsXmXmXmXaXaXsXmXmXAXsXsXsXDXCXZXnXcXs.K h X . X * R F.vXVXsXzXVXAXAXhXsXfXBXBXBXsXsXkXBXMXNXkXuXtXmXDXAXfX",
"iXiXuXkXlXdX<X>XfXkXMXkXuXtXfXkXMXMXfX,XuXkXBXMX<XtXuXsXkXs.K h . X O & O : V z.dXdXuX:X,XuXdXgX>X#X&X>X<X>X&X#X#X>X+X<XrXaXiXMX",
"sXiX,X#X#XoXoXoXoXOXOXOX`.`.oX+XoXOXOXoX`.OXOXoX.XoX`..XOXu.K h X # o + $ + o # S Q x.*XoX.XoXoXoXoXoX+XoXoX|.oX`.D.A.`.tXaXaXMX",
"mXBXMX<X#XoXXXG.|.XXG.|. XXXG.|. X|.G.XX|. XG.XXoX X|. X|.u.K l X O O - $ > 4 < @ # r V p.F.|.Z.G.|.|.|.G.XX|.|.+XV.k.h.lXZXAXkX",
"SXSXMX:XOX|. XH. XoX.XXX|.#XXX+X+X+X+X+X+X+X+X+X<X+X-X+X>Xu.K l O O o + - $ $ $ , > + X * C a.C.f.].oXoXOX X|. XXX|.oX>XBXSXDXbX",
"mXmXMXkX<X'.C.C.V.D.m.V.S.C.f.l.h.h.h.h.b.b.b.b.k.k.b.k.M.Q L l O o + $ 1 1 1 1 > > 1 1 O . * M C d.G.D.b.F.V.C.V.`.#XuXkXmXmXsX",
"iXiXsXSXSXkX&X'.C.k.q.d.v.d.Z   X.X.X.X.........o.o...o.o.A K l O + $ 1 1 1 1 1 6 - $ 1 1 o . . = R j.h.Y d.B.M.}.<XBXDXsXtXaXAX",
"zXzXsXAXAXAXmXsX:XV.A.Z.Z.k.9.o.( ( ( ( ) ) ) ) ` ( ' (  .  L l O + $ 1 > > > > $ 6 6 - $ o O X X T b.N.j.A.C.uXuXMXDXDXsXaXsXMX",
"SXSXAXaXiXsXAXSXjXV. XoX`.n.a.#.( ( ( ( ( ( ( ( ` ( ' ` ( o.U D o $ 1 1 , , > > 2 1 > $ - + & X * p.S.|. X X'.SXSXsXrXiXAXSXAXsX",
"BXAXBXaXsXhXDXSXmXZ.G.`.OXn.q.#.) ) ) ) ) ( ) ) _ ) ) ` ) Z P F + - 3 3 , , 1 1 > , > 3 1 $ o O r q.OXoXD.|.uXCXDXzXaXaXAXSXAXmX",
"sXaXsXmXAXmXsXaXpX|.XXG.|.F.a.%.` ` ` ` ` ` ` ` ` _ _ | ` Z m l $ - 3 3 1 1 1 1 > 3 $ - 1 - + & r f.OX|.XX|.:XcXsXmXSXmXsXiXsXmX",
"iXiXaXSXSXMXtXtXpX+XG.n.l.|.d.%.] ] ] ] ] ] ] ] { { ] ` ] Z P F $ 1 3 3 1 1 1 1 4 > 1 4 , > % O M b.+X X XS.,XpXtXCXSXSXsXiXaXmX",
"mXmXmXmXsXmXmXMXmX:XG.a.j.V.j.8.[ ] { { [ [ [ { [ [ [ [ [ Z U l $ 1 4 3 1 1 3 4 e 2 1 1 2 $ ; O C Z.@X+X.XoXkXVXmXmXsXmXmXmXmXmX",
"SXSXAXiXaXsXSXSXCX[.H.k.h.|.j.8.} [ [ [ } } O.} } } O.} O.Z I z 1 4 5 4 4 2 3 4 t 5 6 1 4 1 6 O C |.oX|.G.$XDXSXSXsXiXiXDXSXSXsX",
"AXmXmXsXsXmXAXmXCX:XXXD.Z.+Xj.8.O.O.O.O.O.O.O.O.O.O.O.O.O.Z I z 1 4 5 4 4 4 4 4 t 5 ; 1 4 3 3 O A +X+XXX.X<XMXAXAXmXsXsXMXAXmXmX",
"iXaXaXSXSXAXaXiXsXlXoX XXX+Xl.w.+.O.O.O.O.+.+.O.+.O.O.+.&.Z U z 1 3 4 4 4 4 4 4 ; 2 6 3 3 3 6 # R +X@X|..XgXsXiXtXAXSXSXaXaXaXmX",
"tXaXsXSXAXAXaXaXsXMXoX XXX+Xl.w.@.+.*.*.+.+.*.*.*.+.+.*.=.Y I z 3 5 4 4 4 4 4 4 1 q 4 2 4 4 1 # t.-XoX|..XdXsXuXaXAXAXSXaXaXaXmX",
"SXSXmXaXaXsXAXSXBXyX'. X|.$XA.w.;.=.=.=.=.=.=.=.=.=.-.=.-.8.I D , 4 4 4 7 8 8 8 5 4 4 2 2 5 2 : a.OX+XXX].dXmXDXAXsXaXaXAXSXAXsX",
"SXSXAXiXaXsXSXSXDXyX#XXX.X$XA.w.:.;.-.-.-.;.;.;.;.;.-.;.:.8.I D > 4 p a s s s f a 8 5 2 3 5 2 e 9.M.`.XXOXuXVXSXSXsXiXiXAXSXAXsX",
"sXmXmXmXmXmXmXsXfXmX<X XXX$X}.w.2.:.;.;.;.:.,.,.,.,.,.:.<.8.I D 4 a f s s s s f c s f 8 3 i - r z.M.A.XX>XfXmXkXsXmXmXmXmXmXmXmX",
"iXiXaXSXSXAXaXiXsXAXdX|. X+X`.q.$.<.,.,.<.2.,.>.>.,.<.>.>.0.I G 7 d a c c c s s f f g c 5 4 $ N }.;X X|.<XSXyXuXrXAXSXSXsXiXiXmX",
"sXmXmXmXmXmXmXsXkXmXtXXX XOXoXa.$.<.>.>.<.2.>.1.1.>.1.1.1.0.I G 9 f 8 f s f f a s f g c a 4 > B ].+XG.oX<XmXmXsXmXmXmXmXmXsXmXmX",
"SXSXAXiXiXsXSXSXBXaX#XXX XOXoXa.e.>.1.1.1.2.1.1.1.1.7.7.3.0.I G 7 s 9 f s f f 0 f s g s a 8 > V OX+X|.+X:XuXDXSXSXaXiXaXAXSXSXsX",
"SXDXmXaXaXsXAXSXmXsX<XoX XOX+Xa.e.3.1.1.3.7.3.4.7.4.4.7.4.9.I G u a s d d k f b f s p s a 8 3 A $X+XXXoX<XsXAXDXAXsXaXsXmXAXAXmX",
"iXaXsXSXSXmXaXiXsXAXMX+X XoX+Xd.e.4.5.4.4.5.5.5.5.5.5.5.5.9.I G 9 9 c s a f f a f j a a f 9 6 T >XoX XOXBXDXzXtXaXAXSXAXsXaXaXMX",
"iXiXsXSXSXAXaXiXsXSXMXoX XOX+Xd.e.5.5.5.5.6.5.6.6.6.6.6.6.9.I K x x z g c j j s a j a a d s i p.<X+X+X+XBXDXsXtXiXDXSXSXsXiXiXAX",
"AXmXmXfXsXmXmXAXmXbXuXoXXXOX>Xd.e.6.6.6.6.K.6.6.6.L.L.K.L.9.E L ~ ~ ~ n a d d s a j a a f 9 i d.<X+X+X$XsXbXmXCXmXmXsXmXmXmXmXmX",
"SXSXAXiXiXsXSXSXDXiXtX+XXXoX2Xh.r.K.K.6.6.K.L.K.K.L.L.P.P.p.E L W / / K v k k b k j f u a w i j.<XoXoX>XrXiXAXSXSXaXrXiXAXSXSXsX",
"mXmXmXmXmXmXmXmXmXmXkX:X.XXX;Xh.r.L.K.P.L.L.P.L.I.L.L.I.P.9.H H H E I k a c s d c s s k s 0 F N.;X|.OX<XmXmXmXmXmXmXmXmXmXmXmXmX",
"iXiXsXSXSXAXaXiXsXSXDXdX.XXX;Xm.r.P.P.I.P.P.P.I.I.I.E.I.I.t.I H W n i a f v c f f s f k s 7 F C.$Xb..XMXSXSXsXiXaXAXSXSXaXaXaXmX",
"aXaXsXAXAXmXsXaXcXAXBX2XoXXX;XN.r.I.P.I.I.I.I.I.I.U.E.U.I.p.E H ^ y e b f s c f j f a a f 4 B ].oXj..XMXAXAXsXsXaXmXSXAXsXaXsXmX",
"SXAXAXiXaXaXAXSXVXsXrX:XoX+X+XN.r.U.U.U.E.U.U.U.U.U.E.U.U.p.E H ^ B e j a d b d s f 0 a s 3 V OXoXb.>XtXiXiXBXSXSXsXaXiXAXAXSXmX",
"SXSXAXiXaXaXSXSXVXsXrX:XoX+X+XC.r.Y.U.E.E.U.E.Y.W.Y.W.W.Y.p.I G ~ H e s d k s a s f 9 a j 3 T >X+X.X<XtXpXrXBXSXSXsXaXiXSXSXDXsX",
"aXsXfXAXAXmXsXsXmXAXAXkXoX+X;XZ.q.Y.Y.W.W.Y.W.Q.Q.T.Q.~.!.y.I G e i > s f a 9 j a a s a j 6 Q >XXX+X#XmXAXNXkXsXsXmXAXAXsXsXsXmX",
"iXtXsXSXSXAXaXiXzXSXSXBXOXoX+XZ.q.Y.T.Q.~.T.~.!.!.T.!.!.!.t.I z 4 a s s f f s a j a 9 u s 6 t.>X|..X[.AXSXDXsXpXaXAXSXSXaXiXaXmX",
"mXmXmXmXmXmXmXmXmXmXmXlX#X+XoXB.d.R.!.!.!.!.~.^.!.^.!.!.^.y.I z w 7 a a d f f k k d s u a e p.uXXX.X<XVXmXlXkXVXmXmXmXmXmXmXmXmX",
"SXSXAXiXiXsXSXSXCXuXyXrX>X|.N.q.q.R.^.!.^.^.(.(.^.(.^.^.^.y.L z 8 a a s s s s s g s j u 7 t h.>XG.+XMXiXiXsXAXSXSXsXiXaXmXSXSXsX",
"AXmXmXsXsXmXmXAXVXuXuXmX<XoX|.oXq._.(.(.(.(.(.(.(./.(./.(.y.L z a a s s s s s s g f j a 7 t k.>XXX+XlXmXsXsXcXAXmXmXsXsXmXAXmXmX",
"iXaXsXSXSXAXaXiXcXDXDXCX&XoXXX+Xq._./././././././.4X4X3X3Xy.L z a a s s s s s s s s a f , N A.>XXXOXuXAXSXAXaXaXaXAXSXAXsXaXiXmX",
"iXaXfXSXSXmXaXiXsXDXSXAX<X.XXX|.d._.3X4X3X4X).4X3X4X4X3X6Xy.L z 8 a s s s s s s g s a f , B `.+XoX#XuXAXSXSXsXiXaXAXSXDXsXtXaXmX",
"AXAXmXaXaXsXAXAXmXsXaXmXfXoX.X+Xd._.5X5X3X4X4X5X5X5X4X3X6Xy.L z 7 a s s s s s s s g a f > V oX+XoX2XMXzXsXsXmXAXAXsXsXsXmXAXAXsX",
"SXSXAXiXiXsXSXSXCXaXyXzXkX.X|.+Xf._.9X9X5X9X9X5X9X5X6X9X6Xy.L z 7 a s s s s s s s 0 a a $ R OXXXoXdXDXsXiXaXMXSXSXaXiXaXAXSXSXsX",
"sXmXmXmXmXmXmXsXcXmXmXmXfXOX|.oXf._.0X0X8X0X0X0X0X0X8XwX8Xy.L z p p s s s s a a a 0 d 7 $ T OX XoXdXkXmXmXmXkXmXmXmXmXmXmXmXmXmX",
"iXiXaXSXSXAXaXiXsXSXSXAXtX.X|.+Xd._.0XqX8XqX0XqXwXqXqXqX7Xy.K z 4 7 a 9 0 8 8 a a 0 d 7 - t.OXXXoX>XrXDXSXSXsXiXiXDXSXSXsXiXiXAX",
"sXsXmXAXAXmXsXsXkXAXAXmXuX#X|.XXj.M.xXeXqXqXeXwXwXqXqXqX7Xy.P k 5 a a 7 8 p p p p 8 u , ; p.OXH.oXdXhXbXDXmXsXsXsXmXAXMXmXsXmXmX",
"SXSXAXiXaXsXSXSXBXrXiXsXDX<XoXG.j.m.7XqX0XqX7XqXqXqX7XxXqXy.L z 7 8 a p 8 8 8 8 p 8 u > t f.#XG.OXlXDXaXaXuXAXSXSXsXiXiXDXSXSXsX",
"SXSXAXtXiXsXAXSXDXaXsXsXDX&XoXXXk.l.xXqXqXqX7X7X7X7X7XxX7Xy.L h 7 7 8 s g 8 8 8 8 q 3 $ t z.#XD.#XBXSXsXaXaXCXSXSXsXiXaXAXSXAXsX",
"aXsXsXSXAXAXaXaXaXmXAXmXfX&XoX|.k.r.xX0XqXqX7X0XwXqXqXqX7Xy.K h 7 4 7 a p 8 7 8 a 8 2 @ M h.OXH.oXuXsXAXAXDXsXaXaXmXAXSXsXsXaXmX",
"iXiXaXSXSXAXaXiXsXSXSXAXtXOX`. Xk.j.xX0X0XwXqXwXwX0X0XqX7Xu.K h 4 4 4 7 7 7 4 8 3 3 > + B v..XS.#XtXrXAXSXSXsXiXiXAXSXSXaXiXaXmX",
"AXmXmXsXmXmXmXmXmXsXzXMXMX>X`.G.j.j.rX7X7XqX7XwXwXqX8X7XiXu.K h 3 3 5 4 7 a u 5 4 2 @ o V A.D.D.uXMXmXbXcXfXmXVXmXmXsXsXmXmXmXmX",
"SXSXAXiXaXsXSXSXSXaXrXuXDX<Xm.q.h.v.rXyXyXrX,X8XrXyX=XiXrXu.K i $ 3 5 4 4 a 7 4 q $ o : A j.f.N.kXDXSXsXuXtXDXSXSXsXiXiXAXSXSXmX",
"mXAXmXmXsXmXmXAXmXmXsX,XuX>XoXA.+XOXsX1X2X2X2XuX2X2X1XtXtX! K i @ 1 4 4 7 8 7 2 @ # y Q G.].j.].uXMXMXkXsXfXMXVXmXmXsXsXmXAXmXmX",
"iXiXaXSXSXAXuXrXsXDXlXOXoX+XXX+X+X+X+X+X+X;X>X>X2X>X>X>X>X! K e + 3 7 p 7 5 % o M Q F.>X>X$X;XOXXXXX#XBXSXSXsXyXiXAXSXSXsXiXiXAX",
"sXaXmXAXAXmXsXaXsXCXBXOXB.|.XXG..X|.|..X.X.XoX.XS.].G.+X|.! K e o + > , 2 ; B R J.H.XXoX|. X*XXX|.Z.'.kXDXmXsXsXsXmXSXAXsXaXsXmX",
"AXAXAXaXaXsXAXSXVXsXuXOXB.B.Z.B.C.N.N.N.N.N.N.N.b.N.b.b.k.Q G e O O o : B R f.V.B.B.B.B.D.D.Z.B.S.C.'.<XfXsXmXAXAXaXaXsXmXAXSXsX",
"SXSXAXiXiXmXSXSXDX{.'.OX'.}.C.C.C.C.C.C.C.M.M.M.C.M.C.m.A.Q K 6 O r V 9.j.m.M.M.M.M.M.m.N.B.C._.C.C.'.[.%XaXAXSXSXaXrXaXAXSXSXsX",
"sXmXmXmXmXmXmXsXuX,X:X#X#X%X%X,X:X:X:X[.[.,X:X[.FX{.:X[.&Xs.Q J t.x.$X#X[.,X,X{.&X%X:X[.[.:X[.{.&X:X&X,X,XuXsXaXsXmXmXmXmXfXsXmX",
"iXiXaXSXSXBXiXiX,XlXMXsXtXiXaXmXNXmXyXyXyXmXNXmXtXiXuXMXDXkX>X&XjXNXBXDXsXrXrXkXmXmXyX8XyXMXDXCXuXtXtXkXMXBXmXiXrXAXSXSXsXiXiXAX",
"mXsXmXmXmXmXmXmXmXMXBXMXmXmXsXVXAXmXmXsXmXmXmXAXjXbXhXmXVXmXhXnXmXZXnXbXfXvXmXnXNXmXmXmXmXmXmXmXmXfXmXmXMXmXmXsXsXmXmXmXmXmXmXmX",
"SXSXAXiXiXsXSXSXAXzXiXsXAXSXmXuXrXsXAXSXAXsXiXpXSXSXBXiXzXaXBXSXCXsXrXuXSXSXBXsXyXsXCXSXAXsXyXaXAXSXSXuXtXpXSXSXSXsXiXaXAXSXSXsX"
};
