/* XPM */
static char *_325e23dd9724414a480edb89d8c408deaFDEqfXiYsrBhEN[] = {
/* columns rows colors chars-per-pixel */
"64 64 230 2 ",
"   c #520C00",
".  c #571103",
"X  c #5B1E15",
"o  c #6D150A",
"O  c #691509",
"+  c #7C1C0C",
"@  c #72160A",
"#  c #5E2619",
"$  c #622A1B",
"%  c #672318",
"&  c #70392C",
"*  c #6B402F",
"=  c #831C0C",
"-  c #881D0C",
";  c #891D11",
":  c #971D0B",
">  c #A31E0B",
",  c #97210F",
"<  c #8A2415",
"1  c #952313",
"2  c #9C2513",
"3  c #992818",
"4  c #8C3019",
"5  c #A22514",
"6  c #A42916",
"7  c #AB2A15",
"8  c #AC2B1B",
"9  c #A82818",
"0  c #B52D15",
"q  c #B32D1B",
"w  c #BA2E1C",
"e  c #BA2E15",
"r  c #B5321C",
"t  c #BC321D",
"y  c #B93819",
"u  c #A12A17",
"i  c #9E2F24",
"p  c #9D3122",
"a  c #9D3C2C",
"s  c #963623",
"d  c #973828",
"f  c #A72D23",
"g  c #B72F21",
"h  c #A23322",
"j  c #A33A2B",
"k  c #AA3D2B",
"l  c #AB3A26",
"z  c #BC3321",
"x  c #B33825",
"c  c #BD3B24",
"v  c #B73221",
"b  c #C42E1E",
"n  c #C3331E",
"m  c #CA351E",
"M  c #C43A1E",
"N  c #C9391F",
"B  c #C53415",
"V  c #D33A1E",
"C  c #C23421",
"Z  c #CC3622",
"A  c #C33C24",
"S  c #CC3B24",
"D  c #C43E28",
"F  c #CC3D2A",
"G  c #C93728",
"H  c #D33624",
"J  c #D43D25",
"K  c #DA3D27",
"L  c #D43D29",
"P  c #DB3E29",
"I  c #DA3725",
"U  c #E13B2B",
"Y  c #9B432F",
"T  c #9A4938",
"R  c #AB432B",
"E  c #A64835",
"W  c #BD4A35",
"Q  c #B7543A",
"!  c #AD4D2E",
"~  c #C2421D",
"^  c #C64226",
"/  c #CD4125",
"(  c #C5432A",
")  c #CE422A",
"_  c #CB492D",
"`  c #D34226",
"'  c #D3442A",
"]  c #DB432B",
"[  c #D5482E",
"{  c #D8462C",
"}  c #DB4E3A",
"|  c #CA553B",
" . c #DC5236",
".. c #E0412E",
"X. c #D6653B",
"o. c #C1603D",
"O. c #9D5B4B",
"+. c #8A5B49",
"@. c #A95847",
"#. c #B85840",
"$. c #B96648",
"%. c #A96855",
"&. c #B96C55",
"*. c #A2745E",
"=. c #B06A50",
"-. c #AA7A63",
";. c #B97965",
":. c #D4734F",
">. c #E06C45",
",. c #AA836C",
"<. c #BB836D",
"1. c #A68B77",
"2. c #B98875",
"3. c #B7927B",
"4. c #AC937F",
"5. c #D18550",
"6. c #E88F52",
"7. c #EFAE56",
"8. c #CF9272",
"9. c #F09E66",
"0. c #F1AC61",
"q. c #FDCC70",
"w. c #AE9481",
"e. c #BA9B86",
"r. c #B9A28C",
"t. c #BDA795",
"y. c #BBB39A",
"u. c #C29B88",
"i. c #C6A28B",
"p. c #D4A58C",
"a. c #C2A593",
"s. c #C3AC9B",
"d. c #C7AA97",
"f. c #D2AD9D",
"g. c #C5B39C",
"h. c #CAB59E",
"j. c #C2B593",
"k. c #C9AEA1",
"l. c #C5B4A1",
"z. c #C9B4A2",
"x. c #CCBBA5",
"c. c #C7BBA9",
"v. c #CABDAB",
"b. c #C5BAA7",
"n. c #D2B5A2",
"m. c #D4BBA6",
"M. c #D3BCAB",
"N. c #D9BDAB",
"B. c #DCB7AE",
"V. c #CBC1AB",
"C. c #D3C2AC",
"Z. c #D7C6AC",
"A. c #CDC2B1",
"S. c #CDC6BC",
"D. c #D5C5B3",
"F. c #DAC6B4",
"G. c #D5C8B4",
"H. c #DBCBB5",
"J. c #D4CCBB",
"K. c #DCCDBB",
"L. c #D1C5B9",
"P. c #DED1B7",
"I. c #DDD2BC",
"U. c #D5D3BA",
"Y. c #E3CEBB",
"T. c #E1CEB5",
"R. c #E2D1B7",
"E. c #E3D3BC",
"W. c #E9D5BF",
"Q. c #E5D9BF",
"!. c #DBCEC2",
"~. c #DDD4C3",
"^. c #DEDAC6",
"/. c #D7D5C9",
"(. c #DAD6CA",
"). c #DDD9CD",
"_. c #DFDCD6",
"`. c #E3D5C3",
"'. c #EAD5C3",
"]. c #E4DAC5",
"[. c #EAD9C4",
"{. c #E2D6C9",
"}. c #E5DBCB",
"|. c #EADDCC",
" X c #EBD5CA",
".X c #E4DDD2",
"XX c #E9DED1",
"oX c #E3DEDA",
"OX c #E0D7D0",
"+X c #E7E0C6",
"@X c #E9E1CE",
"#X c #E6E1D4",
"$X c #ECE2D4",
"%X c #E3E3DC",
"&X c #EBE3DB",
"*X c #EDE8DE",
"=X c #F1E6D5",
"-X c #F3EADA",
";X c #F2E8D6",
":X c #E5E5E5",
">X c #EAE6E2",
",X c #E6E8E4",
"<X c #EAE9E5",
"1X c #E6E6E9",
"2X c #EAE6EA",
"3X c #E6EAEB",
"4X c #EBEBEB",
"5X c #F2ECE4",
"6X c #F3EEEB",
"7X c #EEF1EE",
"8X c #F2F1ED",
"9X c #FAF4EC",
"0X c #F6F2E6",
"qX c #EEEEF1",
"wX c #F1EEF1",
"eX c #EEF2F3",
"rX c #F2F2F1",
"tX c #F1F5F3",
"yX c #F3F3F3",
"uX c #F9F6F4",
"iX c #F6F8F4",
"pX c #FAFAF6",
"aX c #F5F5F9",
"sX c #FAF7F9",
"dX c #F7F9F9",
"fX c #F9F9FA",
"gX c #FEFEFA",
"hX c #FFFFFF",
"jX c #FDFEFE",
"kX c #FCFCFC",
/* pixels */
",X<XkXhXkXqX:X<XkXhXkXrX:X4XrXhXkXtX4X:XeXhXhXdX4X1X4XhXhXkX4X1X4XiXhXkX4X:X4XiXhXkXrX,X,XyXkXkXyX,X:X8XhXpXkX,X1XqXkXhXkX4X,X>X",
",X4XkXkXhX4X4X,XkXhXhXqX:X1XiXhXkXyX>X,X8XkXkXpX,X,X7XkXkXiX<X,X4XdXhXkX4X:X4XdXkXdXeX3X3XtXhXhXeX3X3XeXhXkXkX:X1X4XkXkXkX4X4X,X",
"eXrXrXyXpXyXyX8X8XyXpXyXyXyX8X8XtXtXrXeXrXtXtXrXtXtXtXtXtXeXeXtX7XtXtXtXeX7X7XeXdXtXrXrX7X7XrX8X4X4X4X6XyX8X6X>X<X<X9X6X8XrXyXaX",
"hXkXoX#X).*X5X5X&X.X.X&X5X5X&X&XoX>X6X6X>XoXoX&X6X6X>X&XoX&X5X6X-X#X.X#X*X5X*XXX}.{.}.$X$XXX}.{.|.|.}.}.`.`.`.|.).{.~.~..XhXkXkX",
"kXgX#X}.I.`.`.~.`.E.`.`.`.`.I.I.E.E.E.E.E.E.E.E.T.E.E.Y.Y.E.E.E.E.Y.Y.Y.E.W.Y.Y.E.E.E.Y.H.H.E.E.E.E.E.R.E.E.R.E.I.E.Z.z.L.kXhXkX",
":X6X9X;X|.E.E.K.K.E.E.R.K.R.E.R.E.I.P.P.E.E.E.I.P.E.E.E.E.E.E.P.E.E.E.E.E.P.E.E.E.`.`.G.x.v.D.K.V.H.].I.I.`.E.I.E.R.Z.z.J.&X1X:X",
":X4X8XXX].I.E.E.W.E.E.E.'.'.[.[.}.|.|.|.|.|.}.}.@X@X}.}.}.}.}.@X+X].].+X+X+X].].].[.|.].K.K.|.|.y.x.`.`.`.I.E.E.E.E.E.}.6X4X1X:X",
"aXtXrXoX!.G.C.C.D.x.x.D.D.s.r.r.e.r.a.r.r.a.a.a.t.a.s.s.s.s.s.s.s.s.k.k.z.z.z.z.z.g.g.z.z.z.z.z.w.4.n.Z.F.m.C.Z.C.H.D.(.4XaXaXiX",
"hXhX4X,X%X8X<X%XV.h.w.x.x.1.& X X X X X X X X X X # % % % % % % % % % % % $ $ # # # $ $ $ # $ $ % & 1.V.a.,.g.M.S.).oX,X4XhXhXhX",
"kXiXrX4X6XyXpXpXU.F.N.I.D.r.*     . . . . . O O @ + + = = = = = = = = = = + + + @ o o o o O o O o & r.C.m.h.D.~.9X8X6X4XqXiXkXkX",
":X4XkXhXhX4X,X<XJ.Y.E.E.H.h.+.o @ + + = = ; 2 3 9 8 8 q q q q r t t r r r r r r f u 2 2 3 1 1 ; = T n.H.T.Y.J.^.<X4XgXhXkX4X:X,X",
":X4XiXhXhX4X:X:X(.`.I.E.H.h.*.< 1 3 3 5 9 q w z r r t t t r t t t t t z z t t z t q 7 2 2 , 2 : - O.N.I.E.E.~..X,X4XhXhXkX4X:X:X",
"kXiX4X4X4XaXkXkX.X`.E.E.E.x.-.< 1 3 2 2 6 r r r z z z t t t t t v v r t t t t t w q 8 5 2 , 3 1 - %.F.I.E.E.`.6XkXaXqX4XqXkXkXpX",
"hXkX4X:X:XdXkXkX&XK.E.x.D.D.-.< 5 9 9 9 q t z r z z z z z t z t t t t t t t t t t r t 7 6 , 3 3 < *.I.`.E.E.{.gXkXaX1X:X4XhXhXhX",
"iXyX4X4X4XtXdXkX5X~.H.e.v.G.,.1 5 9 q w w w t n C C t z C C z z t t t t t t n t n t C w g 5 6 1 < ,.^.`.E.Q..XuXiXiXyXwX6XrXiXtX",
":X4XkXhXkX4X,X:X5X|.Z.e.F.J.3.< 2 6 r z t w t C t t t t n n n n C C C C C C C C t r C z c 6 u , < e.(. XE.I.#X:X:X4XgXhXkX4X:X:X",
":X4XkXhXhX4X1X4XyX}.E.C.K.~.3.4 3 q w t c t C n n n C C t t n B n C C C n n t t n n t r c q 8 1 4 a.|.`.E.`.>X<X:X4XhXhXkX4X4X:X",
"kXkX4X4X4XiXkXkX6X).E.K.`.`.e.s 6 q t t c t n n t y c C C C C c t n C C C C C C n n t c c w 8 1 s s.|.`.E.E.,XkXhXiX4X4X4XiXkXkX",
"hXhX4X:X:XhXhXkX6X).E.'.`.].a.a 5 t n t c t t C n t t n b G W #.C C C C C C C C n n t c D t q 1 Y M.{.`.].`.4XpXhXiX:X:X4XhXhXhX",
"iXiXrXrX4XrXrXiXyX#XY.'.`.}.a.a 5 z n r D z w C n n n m C A R E C C C C C C n n n n t c A t q 1 T D.}.`.K.`.rXuXiXiXrXrX4XrXrXiX",
":X4XaXhXhX4X:X:XaX0XE.E.`.}.s.T 6 C n t ( z t C z C C n n n z z t n n C n n n C n n t D A n z 2 O.D.`.[.`.|.yX<X:X4XhXhXkX4X:X:X",
"4X4XkXkXhXrX4X4XyX8XE.E.].$Xg.T 7 C n t D t n n C C n B n M Z H S S M m C n n n n C t D t n z 2 O.y.y.H.].$XyX>X4X4XkXhXkX4X4X4X",
"hXkX4X:X4XiXhXhXqX*XE.E.`.$Xh.@.7 t n t D t Z S H H J J J J S S J J J H Z Z n n n C z D t n z 5 2.^.H.E.`..XeXkXhXiX4X:X4XrXhXhX",
"hXkX4X:X4XkXhXhXqX_.`.'.`.@Xx.@.8 z C t D C L L ` ` ) ` P U P ' J J J P J L S S C C z D r n C 6 2.#X].E.}.&X4XkXhXkX4X:X4XhXhXhX",
"rXrXyXiXrX4X4XrXaX8X}.E.]..XC.=.8 n H / _ A ' ` ] ] K K ] ] K K K P P P P P P K ` J C D t A q h w.|.^.'.`.8XeXwXrXrXrXiXrXrXrXrX",
":X4XkXhXhX4X:X:XkXpX$XE.`.XXH.&.z G H S L P P J ' ` ` ` ' ' ' ' ` ` ` ` ` ` ` ` ` J A ) n M q h u.$X^.'.[.pXtX1X:X4XhXhXhX:X:X:X",
"4X4XiXkXkXrX4X4XiXiX&XE.`.XXK.;.t S L ' S H H L K J J K P P P P ] ] ] ] P P P K J J F F Z N w l s.$X^.`.|.uXtX4X4X4XkXkXkX4X4X4X",
"hXhX4X4X:XkXhXhX4X4X.X`.'.}.K.<.A m I L A ~ M L ` ` ' { { { { { ' ' { ' ' ' ' ' J J F Z J S C R M.|.^.`.{.<XeXkXhXkX:X4X:XhXhXhX",
"hXhX4X4X:XkXhXhX4X3XXX`.[.}.I.2.C B V J S / ` L ' ' ' ' ' ' ' ' ' ' ' ' ' ' ) ) J F F H ` J C Q F.|.`.`.}.:XeXkXhXkX:X:X4XhXhXhX",
"4X4XiXiXiX4X4X4XyXdX<X`.'.|.^.2.c X.6.>.F J ` L ] ] ] ] ] ] ] ] ] ] ] ] ` ` J J J F ) I ] J C @.I.|.].].-XaXaX4X4X4XiXkXkX4X4X4X",
":X4XkXhXhX4X:X:XuXhX8X{.'.|.].3.| 0.q.9.( Z S F / ) ' ' ' ' ' ' ' ' ' ' ' ' ' ) H ) ) K J S g =.}.|.`.].0XhXaX,X:X4XhXhXhX4X:X:X",
"4X4XiXkXiXrX4X4XuXdX6X}.'.].].u.| 7.7.6.x F ` ' ` ` { { { { { ] { { { { ] ] ` ` J ) ) K J S z ;.}.|.`.].8XkXaX4X4XrXiXiXiXrX4X4X",
"hXhX4X:X:XhXhXhX8X:X:X}.E.|.|.e.W X.:.o.R S ) ..] ] ] ] ] ] ] ] ] ] ] ] ] ` ` J J } S K L V r 2.&XZ.Z.}.>X2X4XhXhXkX:X:X4XhXhXhX",
"hXkX4X:X4XiXhXhX4X4X:X{.Y.[.|.a.W X.! $.Q A  .Z P ] ] ] ] ] ] ] ] ] ] ] ] ] ] ] ' } / ] ` m r e.&Xx.C.).:X1X8XkXhXiX4X4X4XkXkXhX",
"4X4XkXkXhX4X4X4XtXhXiX.X'.`.|.a.| >.5.8.$.y _ ' ' ' ' { { { { { { { { ` ` J J J S ' / J L n x a.$Xx.H.*XkXdXuX4X4X4XdXkXkX4X4X4X",
":X:XkXhXhX4X:X:XiXhXkX&X[.`.$Xd.Q | 5.:.Q y M J ) ' ' ' ' ' [ [ [ [ { ' ' / / / S L S J L n k k.&XH.E.<XhXhXuX:X:X4XhXkXhX:X:X:X",
"rXrXyXyXyXwXrXrXtXyXrX$X'.`.@Xh.$.A y c r A { P L L L L L L L L ` ` J J J J J J ` L ` ] P n R M.$X[.`.>XyXiX8XeXrXrXiXrXiX4XrXwX",
"hXhX4X:X4XhXhXhX4X1X4X&XE.{.@Xn.$.n B P L S J J L L L L L L L ` ' ' ' ' ' ' L L ` I ` ] P t E D.XX[.`.>X4X<X4XhXhXdX4X4X4XhXhXhX",
"hXkX4X:X:XiXhXhX<X4X4X&X`.|.{.M.&.b M I L S Z L / / ' ' ' ' { { ' { ' ' ' ) ) ) A H N J H 0 @.K.|.`.!.>X3X,X8XhXhXkX4X4X4XkXkXhX",
"4X4XiXhXhX4X:X4XiXhXhX5X`.`.V.t.:.C y J L M S A J J J J J J J ` L L L L L J J J ^ L S ` H 0 $.~.|.`.|.8XhXdXpX4X:X4XkXkXkX4X4X:X",
":X4XkXhXhX4X:X4XpXhXhX6X`.E.C.l.;.C Z S J S G J K K ] ] J J J J J J K K J ] ` J A ) J J S 8 ;.{.E.].).yXhXhXkX,X:X4XhXhXkX4X:X:X",
"iXrXrXrXrXrXrXrXrXqXqX6X}.`.[.K.;.z m S J S F J J J J J J J J J J K J J J J J J F ) J J A 8 ;.}.W.`.#XrXrXyXrXrXrXrXrXrXrXyXrXrX",
"hXhX4X:X:XkXhXhX4X:X:XuX}.E.[.K.<.c m S J ) F J J J J J J J J J J J J J J L J J ) / H ` n 9 2.|.E.`.5XyX:X:X4XhXhXiX:X:X4XhXhXhX",
"kXkX4X4X4XiXkXkX4X4X4X8XXXI.].K.<.c C F J F F S J J J J J J J J J J J J J J J J ) S J S w h u.|.E.`.5XyX4X4X4XkXkXiX4X4X4XiXdXkX",
":X4XiXhXkX4X4X:XpXhXhX4X}.`.`.`.2.x C F J S F S J J J J J J J J J J J J J J J J ' S L S w j d.XX`.^.%XrXkXhXiX4X:X4XkXhXkX4X:X:X",
":X4XkXhXhX4X4X1XpXhXhX4X.X`.E.`.3.x t ) J S F S J J J J J J J J J J J J J J J Z ) S S S w E h.}.`.{.>XrXhXhXkX:X:X4XhXhXkX4X:X:X",
"iXiXrXwXrXrXiXiX4X4XyX8X5X{.`.`.e.l w S H G F S J J J J J J J J J J J J J J J Z ) G G n q E V.}.`.}.yXtXrXwXrXiXiXiXrXqXrXrXiXiX",
"hXkX4X:X:XkXhXhX8X:X1XpX0X~.].E.r.l q G H G F S J J J J J J J J J J J J J J J Z ) S G t q E C.}.]..XkXtX1X:X4XhXhXiX:X:X4XhXhXhX",
"iXiX4X4X4XkXkXiXqX8X4XaX6X{.E.E.r.T 9 n L G D S J J J J L L L L J L J J J S S S / Z t t 8 %.G. XE.#XdXiX4X4XiXdXiXiX4X4X4XkXkXkX",
"1X4XkXkXhX4X4X:XkXkXhXyX>X~.E.E.i.E 7 e m n n m m N m Z Z S S S S Z Z Z H J Z m t C t w 9 %.K.'.I.OX4XrXkXhXaX<X4X4XhXhXhX:X:X4X",
":X4XkXhXhX4X4X:XaXkXhXqX>X~.E.`.d.@.3 7 t A A m A A A A ^ ^ ( ( ^ A A S F S A C z z z q 6 -.U.I.H..X4X4XkXhXaX:X:X4XhXhXhX:X:X:X",
"dXiX4X4X4XiXkXkXrX4X7XyXyX~.I.E.s.@.2 9 w z C b G G G G G G S S S F G G F G C b e w w 0 9 <.I.`.I.6XkXrX4X4XyXpXkXiX4X4X4XkXkXkX",
"hXhX:X:X:XkXhXhX4X,X:XaXkX~.E.`.y.@.5 7 q 8 t Z Z Z Z J J J Z Z S S Z G A C t t y r r 7 h 8.`.Y.I.uXhXtX,X:XqXhXhXkX:X:X:XhXhXhX",
"iXrXrXrXrXyXrXiX4X8X4XaXuX~.I.K.j.=.2 > > 2 6 0 t n n S S S N N n n t e 0 0 0 0 0 q 9 : s u.~.I.I.6XaXtX8XwXyXiXrXrXrXrXrXiXrXiX",
"4X4XkXhXhX4X1X:XkXkXhXwX>X~.x.z.d.;.a Y j a a a a j j k k k k k j j h p p p p p 8 h i i T u.v.n.I.>X1XrXpXhXaX4X:X4XhXhXhX4X:X4X",
":X4XkXhXhX4X1X:XaXpXhX4X>X{.g.s.S.M.h.C.N.B.N.C.C.C.C.C.N.m.m.m.m.n.n.n.n.f.f.d.p.a.i.p.i.x.y.a.~.>X:XrXpXhXaX:X:X4XkXhXkX4X:X:X",
"hXkXrX4X4XiXkXkXqX<X&X{.|.|.@X|.$X$X$X=X=X=X;X;X;X;X;X-X-X-X-X;X;X;X;X-X-X;X;X;X;X;X=X=X$X@X|.|.|.|.}.XX<X4X4XkXhXiX4X4X4XkXhXkX",
"hXkX4X:X:XkXhXhXqX:X).L.K.E.E.K.E.E.E.`.].].`.`.].`.`.`.`.`.].].}.].].].}.}.].`.].`.`.`.`.`.I.I.`.K.J.(.>X1XqXhXhXdX4X:X4XhXhXhX",
"yXyXrXrXqXiXyXrXeXtX<X~.K.H.E.E.K.K.K.H.H.H.H.K.H.H.H.K.K.H.H.H.H.H.K.K.H.H.K.Y.I.I.I.K.I.I.I.E.~.K.J..X8XiXrXrXyXrXrXrXiXrXiXrX",
":X:XhXhXhX4X1X:XkXyX*X~.J.D.A.A.v.A.A.A.A.v.v.v.c.v.v.c.b.c.v.c.c.b.b.b.c.v.v.v.b.v.v.A.A.A.v.v.A.A.S.).9XhXiX:X:X4XhXhXhX:X:X:X",
"4X4XkXaXkX4X4X:X<X&X).).).).)..X}.).(.(.).}.).)./.(.(.(.(.(.(./.(.(.(.(././.(.(.).(.(.(.(.(.(.).(.).).).>XrXrX4X4X4XkXkXkX4X4X4X",
"hXkX4X:X4XkXkXiX#X&XoX>X<X<X%X:X%X,X<X>X%XoX%X,X,X,X,X:X:X:X:X,X,X%X%X%X,X,X,X,X%X%X%X,X,X%X%X%X%X*X*X%X_._.4XhXkXkX4X4X1XhXhXhX",
"hXhX4X:X:XkXhXkX4X<X,XrXkXhX7X4X:X8XkXkXyX4X,X4XkXkXrX1X,X4XdXkXdX4X:X4XdXhXdX4X:X<XrXkXkXrX<X:XkXkXpXyX4X:XqXkXhXkX4X:X1XhXhXhX",
"rXrXiXiXrXrXrXiXeXtXeXtXeXrXwXyXiXrXrXrXrXtXtXrX8XyXyXyXrXyXyX8XrXyXyXyXrXrXrXyXiXrX8XrXrX8XrXiXeXrXrXrXrXiXaXrXrXrXiXiXiX4XrXrX"
};
