/* XPM */
static char *a3da80720ea4483fe41a4be18639bc75d1Pwqh60SdwdhOgT[] = {
/* columns rows colors chars-per-pixel */
"64 64 65 1 ",
"  c #010101",
". c #060606",
"X c #090909",
"o c #0E0E0E",
"O c #111111",
"+ c gray9",
"@ c #1B1B1B",
"# c gray12",
"$ c #202020",
"% c #252525",
"& c #282828",
"* c #2F2F2F",
"= c gray19",
"- c #343434",
"; c gray22",
": c #3F3F3F",
"> c #434343",
", c gray28",
"< c #484848",
"1 c #4E4E4E",
"2 c gray32",
"3 c gray33",
"4 c #5B5B5B",
"5 c gray37",
"6 c gray39",
"7 c #646464",
"8 c #6A6A6A",
"9 c #6D6D6D",
"0 c #717171",
"q c #767676",
"w c #797979",
"e c gray50",
"r c #C82B2B",
"t c #838383",
"y c gray53",
"u c #888888",
"i c gray55",
"p c #929292",
"a c #979797",
"s c #9B9B9B",
"d c #9D9D9D",
"f c #A0A0A0",
"g c gray65",
"h c #AAAAAA",
"j c #AEAEAE",
"k c gray69",
"l c #B6B6B6",
"z c gray73",
"x c gray75",
"c c gray76",
"v c #C5C5C5",
"b c #CBCBCB",
"n c #CECECE",
"m c gray82",
"M c gray83",
"N c #D8D8D8",
"B c gainsboro",
"V c gray89",
"C c gray90",
"Z c gray92",
"A c #EEEEEE",
"S c gray94",
"D c gray96",
"F c #F8F8F8",
"G c #FDFDFD",
/* pixels */
"DASSASSSSSDSSSSDDDSSSASSSSSSSSSSSSSSSSSSSSSDSSDSSSSSDSASSSDADSSD",
"SSDSDSSSSFDDSASSASDSSSDSSSSSSSSSSSSSSSSSSDSSDDSADDSSDSFDSDSDSDSS",
"SSDSDSDZBnBVSDSSFDSSDDSSSSSSSSSSSSSSSSSSDSSDSSDFSSFSVNnBZSSSSSDS",
"SDDZDDBMAFSNnCSDASSSSSDSSSSSSSSSSSSSSSSSSDSSSSSZDSCnNSGAMNDSASFS",
"SSDADBMGDnSGDMMADSADSAFASSSSSSSSSSSSSSSSSFASDASDDMMDGSmDGNBFSSSS",
"SSAFZnGV%  0DGCnADASDASDSSSSSSSSSSSSSSSSSSSDSSDAnVFD0  $VGvSDSSS",
"AFASNZG1.l8 +cGAnCFSSDASSSSSSSSSSSSSSSSSSADSSFCnZGv@ 9lX<GVBASDS",
"DADAnGv pGGN= pGDbCFADSSSSSSSSSSSSSSSSSSSSSAFCbSGa *MGGa vGnSSSS",
"SSDBNG4oSGFFF6 0GFbZFASSSSSSSSSSSSSSSDDSSDADVnFG0 6GFFGSO4GBVDDA",
"DAFNZGO6GFGGGGt 4GDvCFSSSSSSSDDDDSSSSSSSSSDZmDF5 tGGGGGG7oGZNDSD",
"SSDMGm jGFGGGFGd 1GGnVDDDDDDDSSSASSSDDDDSFAnDG3 sGFGGGGGk mFmSDS",
"SADnGd.BGGGGGGSGg 2GSmZSCCNmnmmnmnnmMNVZSAnZG3 fGSGFGGGGB.sGnDAS",
"SSAnGq.FGGGGGGGGFh 3GSvnmNAGGGGGGGGGFSBnmvZG4 gFFGGGGGGFFXqGmASS",
"SFCMG3#GGGGGGFGGGGs.8GGGGGSmkayetyakMSGGGGG0 sGGGGFGGGGGG$2GMCFS",
"DSAMG,*GFGGGGGGGFFGy aGg3%  .      .  %3gGp uGDGGGGGGGGFG=>GMASD",
"SDCNG:*GGGGGGGGGGFGG5 X +<yknCSSDSCmky,+ ..5GGGGGGGGGGGGG=;GNCSS",
"SDCNG>*GGGGGGGGGGGGGA<qmGGGGGGGGGGGGGGGGmq<AGGGGGGGGGGGGG=>GNCDS",
"SDCMG1$GGGGGGGGGGGGGGGGGGGGGGGGGGGGGGGGGGGFGGGGGGGGGGGGGG%<GNZDS",
"SDZmG7OGGGGGGGGGGGGGFGFGGGGGGGGGGGGGGGGGGFGFGGGGGGGGGGGGG+6GMASS",
"SSSmGt.SGGGGGGGGFGGFGGGGGGGGGGGGGGGGGGGGGGGGFGGFGGGGGGGGS.eGnSSS",
"SSDmGf VGGGGGGGGGGGGGGGGGGGGGGGGGGGGGGGGGGGGGGGGGGGGGGGGV dGbSSS",
"SSSnGv cGGGGGGGGGGGGGGGFGGGGGGGGGGGGGGGGFGGFGGGGGGGGGGGGv xGmSSS",
"SSSMDZ.pGGGGGGGGGGGGGGFGGGGGGGGGGGGGGGGGGGGGGGGGGGGGGGGGp.VDMDSS",
"SSFBVGO6GGGGGGGGGGGrrrrrGGGGGGGGGGGGGGGGGGrGGGGGGGGGGGGG7oGZMDDA",
"SSDAMG,%GGGGGGGGGGGrGGGrGGGGGGGGGGGGGGrrrrrGGGGGGGGGGGGG*>GNCSDA",
"SSSSmGt.AGGGGGGGGGrGGGGrGGGGGGGGGGGGGrrGGGrGGGGGGGGGGGGS wGnZFSD",
"ASSSmGb zGGGFGGGGGrG GGrGGGGGGGGGGGGGrGGGGrGGGGGGGGFGGGz vGmSSSS",
"SSDDmGC tGGGGGGGGGrGGGGrGGGGGGGGGGGGGrGG GrGGGGGGGGGGFGy.CFmFADS",
"DSSSnGg lGGGGGGGGGrrGGrrGGGGGGGGGGGGGrGGGGrGGGGGGGGGGFGz fGbSDSS",
"SADBNG-*GGGGGGGGGGGrrrrGGGGGGGGGGGGGGrGGGGrGGGGGGGGGGGGG*=GBBDSA",
"SSFnDV pGDGGGGGGGGGGGGGGGGGGGGGGGGGGGrGGGrrGGGGGGGGGGGDGa NGmSSS",
"SDZmGs NGGGGGGGGGGGGGGGGGGGGGGGGGGGGGGrrrGGGGGGGGGGGGGGGN.aGmASD",
" DZmG3@GGGGGGGGGGGGGGGGGGGGGGGGGGGGGGGGGGGGGGGGGGGGGGGGGG@3GMZDS",
"S  VG&,GGGGGGGGGGGGGGGGGGGGGGGGGrGGGGGGGGGGGGGGGGGGGGGGGG,%GVBDS",
"SSN    GGGGGGGGGGGGGGGGGGGGGGGGGrGGGGGGGGGGGGGGGGGGGGGGGG0 GZMDS",
"SDNZF t      GGGGGGGGGGGGGGGGGGrrGGGGGGGGGGGGGGGGGGGGGGGGy FANFS",
"SFNAD uGFGGGG   GGGGGGGGGGGGGrrGrGGGGGGGGGGGG  GGGGGGGGFGu D NDS",
"SFMAF yGGGGGGGGGGGGGGGGGGGGrrGGGrGGGGGGGGGGGGGG      GG     AMDS",
"SDBCGO6GGGGGGG  GGGGGGGGGGrrrrGGrGGGGGGGGGGGGGGGGGGGG  GG7OGCBDS",
"S             GGGGGGGGGGrrrrGGrrrGGGGGGGGGGGG GGGGGGGGGGG:*GNCDS",
"SDZmG7oFGGGGGGGGGGGGGGGGGGGGGGGGGGGGGGGGGGGGG  GGGGGGGGGFo6GmASD",
"SDDnGh mGGGGGG  GGGGGGGGGGGGGGGGGGGGGGGGGGGGGGG        Gm gFnSSA",
"SADMSS qGG    GGGGGGGGGGGGGGGGGGGGGGGGGGGGGGGGGGGGGGGGG      DSF",
"DSDCmG>   GGGGGGGGGGGGGGGGGGGGGGGGGGGGGGGGGGG GGGGGGGGFF$,GMB   ",
"ASSDm   hGFGGGGGGGGGrrrGGGGGGGGGGGGGGGGGGrrGG GGGGGGGFGh zGmADDS",
"DSA  NG*#DGGGGGGGGGGGGrrGGGGGGGGGGGGGGGGGrGGGG  GGGGGGD#=GCNSSSS",
"SSS ZmGc uFFGGGGGGGGGGGGrrrrrrrrGGGGGGGGrrGGGGGG  GGFGu zGnCDSSS",
"SDSSDBMG6 mGGGGGGGGGGGGGGGGGGGGrrrGGGGGrrGGGGGGGGG  Gm 5GVMGSSSS",
"SSDSSDbDD#$AGGGGGGGGGGGGGGGGGGGGGrrrrrrrGGGGGFGGGGGG  $SFnDSSSSD",
"SSDDADZmGb.>DGFGGGGGFGGGGGGGGGGGGGGGGGGGGGGFGGGGGFGD>   mVDSSSDA",
"SSSDSSDNMGl >DGFGFFGGGGGGGGGGGGGGGGGGGGGGGGGGFFGGGD> lG MDSSSSSS",
"SSSADASDmBGj =VGGGGGGGGGGGGGGGGGGGGGGGGGGGGGGGGGGC-.hFBMDDSDADSD",
"SADASDSSFnBGxOOzGDFGGGGGGGGGGGGGGGGGGGGGGFGGGFDGxOoxGVnDDADDADSS",
"SSSDSSDASDmVGN= 7DGGGFGGGGGGGGGGGGGGGGGGGGFGGGD7 -BGBmDSSSSSDSSS",
"SSSSDADDDDSMmGGt oiDFGGFGGGGGGGGGGGGGGGGDGGGFiO tGGmMDSSDDASDSSD",
"DADSSSDSDSSDBnZGB<.otVGGGGGGFFGGGGGGGGGGGGVto ,NGZnCDDASSSDDADSS",
"SSSSSSSSSSSDDZMMGGn1  -pNFGGGGGGGGGGGGFNp;  <nFGmBZSSSSSSSSSSSSS",
"SSSSSSSSADDSSDACbVGGZu$  +:9ajxbbcja9:+  %yZGGBbCASDSSSSSSSSSSSS",
"SSSSSSSSDSSSSDDSSVbmFGFZg7&o        o&5dZFGFmnVSDDDSSSSDSSSSSSSS",
"SSSSSSSSFASDSASSSFSVmnVSGFGGANbccnNAGGGGFCnMVSDASSSSSDDDSSSSSSSS",
"SSSSSSSSSSSDSSSSSAAFDABMmmNVAFGGGGFSCBMnmBZDDSADSSSDDSSSSSSSSSSS",
"SSSSSSSSSSDSSDDSSDDSADDDSSCBNMnmMmMNNVAADDDASDSSSSSSSSSSSSSSSSSS",
"SSSSSSSSSSSSDSSSSAADSDASSDSSFDDFDDDFDSDSSASSSSADSSSSSSSDSSSSSSSS",
"SSSSSSSSSDSSDSSDSDSDASSSSSDSSSSSSSSASSSSSDSSSSDSSSSSSSSSSSSSSSSS"
};
