/* XPM */
static char *_7a22a62c1804b60bb336fd988e22118BTBAv97q347OvPb4[] = {
/* columns rows colors chars-per-pixel */
"64 64 222 2 ",
"   c None",
".  c #00131E",
"X  c #000F19",
"o  c #011521",
"O  c #021925",
"+  c #011B2B",
"@  c #011E31",
"#  c #0B232C",
"$  c #012035",
"%  c #01243B",
"&  c #0B2B39",
"*  c #13303A",
"=  c #012741",
"-  c #022A44",
";  c #012D4A",
":  c #03314F",
">  c #0A344A",
",  c #153B49",
"<  c #013252",
"1  c #01365A",
"2  c #003A5D",
"3  c #093A54",
"4  c #113E54",
"5  c #023D61",
"6  c #164456",
"7  c #224F5E",
"8  c #044165",
"9  c #0A4465",
"0  c #04446B",
"q  c #094668",
"w  c #0A4A6C",
"e  c #114C69",
"r  c #1C5061",
"t  c #054B75",
"y  c #0A4D72",
"u  c #024A77",
"i  c #0C5176",
"p  c #0C557B",
"a  c #08557E",
"s  c #135574",
"d  c #135C7B",
"f  c #18597A",
"g  c #225D77",
"h  c #285461",
"j  c #27657C",
"k  c #336C7C",
"l  c #045484",
"z  c #0D5A81",
"x  c #085988",
"c  c #105D84",
"v  c #045C93",
"b  c #035F9A",
"n  c #0E618B",
"m  c #13658B",
"M  c #186688",
"N  c #096499",
"B  c #146A92",
"V  c #156D96",
"C  c #16729E",
"Z  c #1B769A",
"A  c #1E718E",
"S  c #296A85",
"D  c #32728A",
"F  c #247C99",
"G  c #397992",
"H  c #22728B",
"J  c #0464A3",
"K  c #046AAA",
"L  c #0A6CA3",
"P  c #1373A4",
"I  c #177AA7",
"U  c #036EB4",
"Y  c #0473BC",
"T  c #0977B9",
"R  c #147EB7",
"E  c #037CCB",
"W  c #057AC4",
"Q  c #027FD2",
"!  c #2A829C",
"~  c #3A8398",
"^  c #1D82AA",
"/  c #1482BA",
"(  c #1B88B9",
")  c #2688A8",
"_  c #2E94AE",
"`  c #3694A9",
"'  c #2894B7",
"]  c #3393B3",
"[  c #308CAC",
"{  c #37A3B7",
"}  c #498CA1",
"|  c #4696AA",
" . c #549CAE",
".. c #46A4BC",
"X. c #5DA8B7",
"o. c #64AFBE",
"O. c #0983CC",
"+. c #188CC4",
"@. c #1C94CB",
"#. c #0482D3",
"$. c #0789D5",
"%. c #0B8CD5",
"&. c #0B8EDA",
"*. c #0787D6",
"=. c #118ED1",
"-. c #0F91D7",
";. c #0E92DC",
":. c #1494D6",
">. c #1295DA",
",. c #159ADC",
"<. c #1C9BD6",
"1. c #2298C7",
"2. c #229DD1",
"3. c #1EA1DB",
"4. c #2DA2C7",
"5. c #34A8C6",
"6. c #3CB3CC",
"7. c #22A4DA",
"8. c #2BA9D7",
"9. c #32B5DD",
"0. c #36B3D5",
"q. c #2CB2DD",
"w. c #0E95E0",
"e. c #149CE2",
"r. c #1097E1",
"t. c #16A1E6",
"y. c #1BA4E3",
"u. c #17A5EB",
"i. c #19A6EB",
"p. c #1CAAEC",
"a. c #1EA8E7",
"s. c #1CADF1",
"d. c #17AAF3",
"f. c #1FB1F3",
"g. c #1CB5FD",
"h. c #1FB8FF",
"j. c #1FB0EF",
"k. c #22AAE5",
"l. c #23AEE9",
"z. c #25B2ED",
"x. c #2CB4E7",
"c. c #33BBE6",
"v. c #35BBE7",
"b. c #22B5F4",
"n. c #24BCFC",
"m. c #27BAF7",
"M. c #47B6C9",
"N. c #46BAD5",
"B. c #54BDD5",
"V. c #45BDE3",
"C. c #3FC6EB",
"Z. c #27C0FE",
"A. c #2AC3FE",
"S. c #2EC5FB",
"D. c #32C7FD",
"F. c #34CCFE",
"G. c #3CCDFE",
"H. c #37C4F4",
"J. c #36D1FF",
"K. c #3CD3FE",
"L. c #3FD6FB",
"P. c #48CBDD",
"I. c #53C4DA",
"U. c #54D5DD",
"Y. c #48C1CE",
"T. c #78C9D4",
"R. c #7ED0D9",
"E. c #45CCE3",
"W. c #59CCE6",
"Q. c #4BD6E9",
"!. c #42CFFF",
"~. c #45D3FE",
"^. c #4CD5FE",
"/. c #43DBFE",
"(. c #4DDCFE",
"). c #4BDFF7",
"_. c #51D7FD",
"`. c #54DAFE",
"'. c #5BDEFE",
"]. c #51D5F3",
"[. c #58DEE4",
"{. c #69DCF1",
"}. c #6DD6E8",
"|. c #5DE7EC",
" X c #46E1FE",
".X c #4BE4FD",
"XX c #4FE9FF",
"oX c #53E3F5",
"OX c #53E4FC",
"+X c #5EE2FE",
"@X c #54ECFE",
"#X c #5AECFD",
"$X c #5AF3FE",
"%X c #5CF6FF",
"&X c #64E3FE",
"*X c #6BE6FE",
"=X c #62EAFD",
"-X c #6DEAFE",
";X c #73EAFE",
":X c #7BEEFE",
">X c #72E6FA",
",X c #65FDFF",
"<X c #6AFDFE",
"1X c #66F3FA",
"2X c #72F3FD",
"3X c #7EF1FE",
"4X c #7CFBFE",
"5X c #83D5DD",
"6X c #85DAE2",
"7X c #84F2FE",
"8X c #8BF5FE",
"9X c #8BFBFE",
"0X c #91F7FE",
"qX c #93F9FE",
"wX c #9EFDFE",
"eX c #9BFBFE",
"rX c #99F2F6",
"tX c #91E9EE",
"yX c #A2FDFE",
"uX c #A6FFFE",
"iX c #A5FEFD",
"pX c #A2FDFE",
/* pixels */
"                                                        2 2 2 2                                                                 ",
"                                                  2 2 2 2 5 5 2 2                                                               ",
"                                            2 2 2 2 q M ` ` w 2 2                                                               ",
"                                          2 2 2 d ` U.1XU.d 2 2                                                                 ",
"                                      2 2 2 s { |.,X<X1XH 1 2                                                                   ",
"                                    2 2 2 F [.<X,X,X,XI.8 2 2                                                                   ",
"                                    2 2 ! 1X,X<X4X<X,XM.2 2                                                                     ",
"                                  2 2 d |.,X<XqXeX<X,X{ 2 2                                                                     ",
"    2 2 2 1 2 2 2                 2 2 { ,X,X9XiXeX,X,X{ 2 2                                                                     ",
"  2 2 5 f D S q 2 2               2 5 Y.,X<XeXiXwX<X%XQ.s 2 2             2 2 2                                                 ",
"2 2 e o.tXeXrXR.j 2 2             2 5 N.,X,XeXiXiX9X%X%XM.q 2 2         2 2 2 2 2 2                                             ",
"2 1 G pXwXR.| X.} 2 2             2 2 { %X1X9XiXiXyX2X$X$X5.d 2 2 2     2 2 9 S w 2 2 2                                         ",
"2 2 S rX6Xs 1 2 9 2 2             2 1 A #X$X4XiXiXiXeX2X$X$XQ._ y 2 2 2 2 2 2 G T.D 2 2 2                                       ",
"2 2 5  .6Xg 2 2 2 2               2 2 w P.$X1XwXiXiXiXwX3X#X@X@XE.) q 1 2 2 2 8 T.rX~ 2 2                                       ",
"  2 2 5 D G 2 2 2                   2 2 _ $X#X9XiXiXiXiXiX0X2X#X@XOXN.F w 2 2 2 } 5XT.g 2 2                                     ",
"    2 2 2 8 2 2 2                   2 2 d oX@X2XyXiXiXiXiXiXyX9X2X#XXXXXE.) p 2 5 9 e 9 2 2                                     ",
"    2 2 8 F M 8 2 2 2               2 1 d oX@X2XiXiXiXiXiXiXiXiXyX0X2X=X@X.XQ.) 8 2 2 2 2                                       ",
"      2 2 M P.N.F w 2 2 2 2 2 2 2 2 2 8 { @X@X9XiXiXiXiXiXiXiXiXiXiXyXwX9X#X.X X4.w 2 2                                         ",
"        2 2 A oX#XP._ M w 5 2 2 2 5 d 6.XX@X-XwXiXiXiXiXiXiXiXyXyXyXyXwXwX0X-X.X X4.8 2 2                             2 2 2 2   ",
"        2 2 2 ! oX$X@XoXE.6.{ _ ] 6.Q.@X@X2XeXiXyXyXyXyXyXyXwXeXeXeXeXeXeXeX0X=X/./.4.i 2 2                     2 2 2 2 8 5 2 2 ",
"          2 2 5 [ oX@X@X@X@X@X@X@X@X@X=X9XyXyXyXyXwXwXeXeXeXeXeXeXeXeXeXeX0X0X8X=X/./.5.8 2                 2 2 2 0 m ) m 5 2 2 ",
"            2 2 2 _ oXXX2X0X0X0X0X0X0XeXyXwXeXeXeXeXeXeXeXeXeXeX0X0X0X0X8X8X8X8X9X+X/.L.m 2 2           2 2 2 y ^ 9.c.B 5 2 2   ",
"              2 2 w P.XX#X0XyXyXwXwXeXeXeXeXeXeXeXeXeXeX0X0X0X8X8X8X8X8X8X8X7X7X7X;X/.L.0.d 2 2     2 2 2 y ^ c.K.9.z 2 2 2     ",
"                2 2 F )..X-XeXeXeXeXeXeXeXeX0X0X0X0X8X8X8X8X8X8X8X7X7X7X7X7X7X7X:X:X=X/.L.c.z 2 2 2 2 8 Z x.J.J.v.z 2 2         ",
"                2 2 w E..X=X0XeXeXeX0X0X0X0X8X8X8X8X8X8X7X7X7X7X7X7X7X:X:X:X:X:X:X:X;X+XK.K.8.y 1 2 y 1.F.J.F.F.I 2 2           ",
"                2 2 F ). X*X0X0X8X8X8X8X8X8X8X8X7X7X7X7X7X7X3X:X:X:X:X:X:X;X;X;X;X;X;X-X_.K.J.8.I ^ q.F.F.F.F.q.0 2 2           ",
"              2 2 d C. X.X3X8X8X8X8X8X7X7X7X7X7X7X3X:X:X:X:X:X:X;X;X;X;X;X;X-X-X*X*X*X&X&X^.F.F.F.F.F.F.F.F.F.I 2 2             ",
"            2 2 w 0. X X-X9X9X7X7X7X7X7X3X:X:X:X:X:X:X;X;X;X;X;X;X-X-X-X*X*X&X&X&X&X&X&X+X'.(.~.K.K.~.^.G.F.x.i 2 2             ",
"          2 2 y 4././.=X7X7X7X7X:X:X:X:X:X:X:X;X;X;X;X;X-X-X-X*X*X*X&X&X&X&X&X+X'.'.'.'.'.'.`.`._._._.^.F.D.2.5 2               ",
"        2 2 0 4././.OX:X:X:X:X:X:X:X;X;X;X;X;X;X-X-X*X*X*X*X&X&X&X&X&X+X'.'.'.'.'.`.`.`._._.^.^.^.^.^.~.F.S.7.0 2 2             ",
"      2 2 5 ' /./.OX;X:X:X;X;X;X;X;X;X-X-X*X*X*X&X&X&X&XB.~ ~ | W.'.'.'.`.`.`._._.^.^.^.^.^.~.~.~.!.~.G.D.A.z.t 2 2             ",
"      2 2 V L.L.(.{.}.>X;X;X-X-X-X*X*X*X*X&X&X&X&X&XI.j & . . o 6 N.`._._._.^.^.^.^.~.~.!.!.!.G.G.H.v.G.D.Z.m.V 2 2             ",
"    2 2 w 9.L./.I.h * k {.*X*X&X&X&XW.M.| D ~ ..I.M., . . o o . . 6 N.V.5.! j S ] C.G.G.G.G.G.D.) 6 4 8.S.Z.Z.7.t 2 2           ",
"    2 2 ) L.L.].7 . . . ~ &X&X&X&XW.6 O . . . O & & . . . o o o . . & * O . . . o 6 8.F.D.D.D.' + . X s m.n.n.n.R 2 2           ",
"  2 2 y c.K./.W.* . o . # ..+X'.'.~ . . . o o . . . . . o o o o . . . . . o o o . . 6 x.A.Z.z.4 . o . > l.n.n.n.a.t 2 2         ",
"  2 2 Z K.K.(.B.# . o o . , N._.].r . o o o o o . . o o o o o o o o o o . . o o o . O ' m.b.B . . . . + <.n.n.n.n.C 2 2         ",
"  2 5 4.K.K.`...O . . . . . * r g & . o o o o o o o o . . o . . . . o o o o o o . . O e e 3 O . o . . o I n.n.g.h.+.5 2         ",
"2 2 w c.J.K.`.` . o o o . . . . . . o o o o o o . . . o o . o o o o . . . . . . o o . . . . . o o o o . m h.g.g.g.y.0 2 2       ",
"2 2 z H.F.K.(.` . o o o o o o o o o o o o o . . . o o o o o o o o o o . . . o o o o o o o o o o o o o . z g.g.g.d.>.t 2 2       ",
"2 2 B D.F.G.~.] O O O O O O O O O O O O o O 3 e > O o O O O O O O O O > w 3 O o O O O O O O O O O O O . m g.u.r.>.=.a 2 2       ",
"2 2 V F.F.G.G.v.4 O O O O O O O O O O O % I z.m.z.B + O O O O O O O w y.n.z.C @ O O O O O O O O O O O = / e.>.-.-.&.l 2 2       ",
"2 2 B D.D.F.F.F.8.f > $ + + + + + + + O B Z.n.n.n.m.d O + + + + O 9 y.n.h.h.b.i O + + + + + + + $ = q / ,.,.>.&.&.&.x 2 2       ",
"2 2 c S.S.S.S.S.A.Z.k.f @ @ @ @ @ @ + = 2.n.n.n.n.n.7.; + @ @ + - <.h.g.g.g.g.@.% + @ @ @ @ @ @ 3 R >.e.r.>.&.&.&.&.x 2 2       ",
"2 2 p m.A.A.Z.Z.Z.Z.1.- @ $ $ $ $ $ @ 8 b.n.n.n.n.n.b.w @ $ $ @ 9 f.g.g.g.g.g.s.8 @ $ $ $ $ $ $ % P t.e.>.&.&.&.%.%.l 2 2       ",
"2 2 0 7.m.m.n.Z.Z.Z.m @ % % % % % % $ p n.n.n.n.n.n.n.i $ % % $ w b.g.s.u.u.s.i.i $ % % % % % % $ y e.e.>.%.%.%.%.O.u 2 2       ",
"  2 2 I y.y.y.a.b.b.P % % % % % % % % w z.n.n.f.n.n.b.w % % % % 3 3.b.p.>.i.f.y.9 % % % % % % % % n t.t.-.%.%.%.%.T 5 2 2       ",
"  2 2 x ,.,.,.,.a.p.3.c ; % % = = = = ; 1.Z.m.f.n.Z.2.: = = = % % B m.n.b.m.Z.( - = = = = % % = y :.u.e.%.%.%.%.%.N 2 2         ",
"  2 2 0 +.,.,.,.,.a.p.a.( n 2 - - - - - p 7.Z.A.Z.7.y - - - - - - : ( Z.A.Z.2.9 - - - - - 3 x I ,.i.u.;.$.%.$.$.W t 2 2         ",
"    2 2 N :.,.>.>.,.a.p.z.k.p - ; ; ; ; - 3 m ( C 8 - ; ; ; ; ; ; ; 3 C ( B 3 - ; ; ; ; - 8 ,.p.p.i.r.%.*.*.*.*.J 2 2           ",
"    2 2 8 / ,.>.>.>.>.a.f.3.8 ; ; ; ; ; ; ; ; ; ; ; ; ; ; ; ; ; ; ; ; ; ; ; ; ; ; ; ; ; ; : / s.p.;.$.*.*.#.*.W 0 2 2           ",
"      2 2 l =.>.>.>.>.a.b.k.a ; < < < < < : < < < < < < < < < < < < < < < < < < < < < < : < / s.p.%.#.#.*.*.O.l 2 2             ",
"      2 2 2 N :.>.>.>.,.j.b.<.a < < < < < < < < < < < < < < < < < < < < < < < < < < < < 3 P a.f.u.*.#.#.#.#.N 5 2 2             ",
"        2 2 5 L :.-.-.-.e.b.b.k.P p 1 < 1 1 1 1 < < 2 5 8 8 8 8 5 1 < 1 < < < < < < 0 B +.b.b.i.&.#.#.#.#.K 8 2 2               ",
"          2 2 5 L -.-.&.&.r.s.b.n.@.5 2 2 2 2 2 2 1 y <.3.3.3.<.@.0 1 2 2 2 2 2 2 1 P b.b.f.t.$.#.#.#.#.K 8 2 2                 ",
"            2 2 8 L %.&.&.&.;.b.n.<.8 2 2 2 2 2 2 2 x b.n.n.m.n.z.z 2 2 2 2 2 2 2 2 / n.b.w.#.#.#.#.Q J 8 2 2                   ",
"              2 2 5 v O.&.%.%.i.n.b.B 2 2 2 2 2 2 8 +.m.n.e.e.n.m.+.0 2 2 2 2 2 2 z k.m.s.*.Q #.#.E b 5 2 2                     ",
"                2 2 2 a T %.%.;.b.Z.z.P t 8 8 0 n @.m.n.p.*.*.p.n.n.<.n 0 8 8 t C k.n.n.r.Q #.#.Y l 2 2 2                       ",
"                  2 2 2 8 N O.%.r.b.Z.Z.z.7.7.k.m.A.Z.s.&.#.#.*.u.n.Z.m.k.7.7.z.Z.Z.n.e.#.#.E J 0 2 2 2                         ",
"                      2 2 2 u K O.;.i.b.n.Z.Z.n.n.p.;.*.#.#.#.#.#.;.s.n.Z.Z.Z.n.b.i.&.#.E K a 2 2 2                             ",
"                        2 2 2 5 a K E %.;.w.;.;.$.#.#.#.#.#.#.#.Q Q #.$.&.;.;.&.*.#.W J u 5 2 2 2                               ",
"                            2 2 2 5 t v K Y E E #.#.#.#.#.#.#.#.#.#.#.#.Q E W U J l 0 2 2 2 2                                   ",
"                                2 2 2 2 2 8 u l v N J K U Y Y Y Y U U K b l 0 5 2 2 2 2 2                                       ",
"                                      2 2 2 2 2 2 2 2 2 5 5 8 8 5 5 5 5 2 2 2 2 2                                               ",
"                                                2 2 2 2 2 2 2 2 2 2 2 2 2                                                       "
};
