/* XPM */
static char *f4582d6843ca4d69975676a660d01cc9[] = {
/* columns rows colors chars-per-pixel */
"64 64 256 2 ",
"   c black",
".  c #010101",
"X  c #020202",
"o  c gray1",
"O  c #040404",
"+  c gray2",
"@  c #060606",
"#  c #070707",
"$  c gray3",
"%  c #090909",
"&  c gray4",
"*  c #0B0B0B",
"=  c #0C0C0C",
"-  c gray5",
";  c #0E0E0E",
":  c gray6",
">  c #101010",
",  c #111111",
"<  c gray7",
"1  c #131313",
"2  c gray8",
"3  c #151515",
"4  c #161616",
"5  c gray9",
"6  c #181818",
"7  c #191919",
"8  c gray10",
"9  c #1B1B1B",
"0  c gray11",
"q  c #1D1D1D",
"w  c #1E1E1E",
"e  c gray12",
"r  c #202020",
"t  c gray13",
"y  c #222222",
"u  c #232323",
"i  c gray14",
"p  c #252525",
"a  c gray15",
"s  c #272727",
"d  c #282828",
"f  c gray16",
"g  c #2A2A2A",
"h  c gray17",
"j  c #2C2C2C",
"k  c #2D2D2D",
"l  c gray18",
"z  c #2F2F2F",
"x  c gray19",
"c  c #313131",
"v  c #323232",
"b  c gray20",
"n  c #343434",
"m  c #353535",
"M  c gray21",
"N  c #373737",
"B  c gray22",
"V  c #393939",
"C  c #3A3A3A",
"Z  c gray23",
"A  c #3C3C3C",
"S  c gray24",
"D  c #3E3E3E",
"F  c #3F3F3F",
"G  c gray25",
"H  c #414141",
"J  c gray26",
"K  c #434343",
"L  c #444444",
"P  c gray27",
"I  c #464646",
"U  c gray28",
"Y  c #484848",
"T  c #494949",
"R  c gray29",
"E  c #4B4B4B",
"W  c #4C4C4C",
"Q  c gray30",
"!  c #4E4E4E",
"~  c gray31",
"^  c #505050",
"/  c #515151",
"(  c gray32",
")  c #535353",
"_  c gray33",
"`  c #555555",
"'  c #565656",
"]  c gray34",
"[  c #585858",
"{  c gray35",
"}  c #5A5A5A",
"|  c #5B5B5B",
" . c gray36",
".. c #5D5D5D",
"X. c gray37",
"o. c #5F5F5F",
"O. c #606060",
"+. c gray38",
"@. c #626262",
"#. c gray39",
"$. c #646464",
"%. c #656565",
"&. c gray40",
"*. c #676767",
"=. c #686868",
"-. c DimGray",
";. c #6A6A6A",
":. c gray42",
">. c #6C6C6C",
",. c #6D6D6D",
"<. c gray43",
"1. c #6F6F6F",
"2. c gray44",
"3. c #717171",
"4. c #727272",
"5. c gray45",
"6. c #747474",
"7. c gray46",
"8. c #767676",
"9. c #777777",
"0. c gray47",
"q. c #797979",
"w. c gray48",
"e. c #7B7B7B",
"r. c #7C7C7C",
"t. c gray49",
"y. c #7E7E7E",
"u. c gray50",
"i. c #808080",
"p. c #818181",
"a. c gray51",
"s. c #838383",
"d. c #848484",
"f. c gray52",
"g. c #868686",
"h. c gray53",
"j. c #888888",
"k. c #898989",
"l. c gray54",
"z. c #8B8B8B",
"x. c gray55",
"c. c #8D8D8D",
"v. c #8E8E8E",
"b. c gray56",
"n. c #909090",
"m. c gray57",
"M. c #929292",
"N. c #939393",
"B. c gray58",
"V. c #959595",
"C. c gray59",
"Z. c #979797",
"A. c #989898",
"S. c gray60",
"D. c #9A9A9A",
"F. c #9B9B9B",
"G. c gray61",
"H. c #9D9D9D",
"J. c gray62",
"K. c #9F9F9F",
"L. c #A0A0A0",
"P. c gray63",
"I. c #A2A2A2",
"U. c gray64",
"Y. c #A4A4A4",
"T. c #A5A5A5",
"R. c gray65",
"E. c #A7A7A7",
"W. c gray66",
"Q. c #A9A9A9",
"!. c #AAAAAA",
"~. c gray67",
"^. c #ACACAC",
"/. c gray68",
"(. c #AEAEAE",
"). c #AFAFAF",
"_. c gray69",
"`. c #B1B1B1",
"'. c #B2B2B2",
"]. c gray70",
"[. c #B4B4B4",
"{. c gray71",
"}. c #B6B6B6",
"|. c #B7B7B7",
" X c gray72",
".X c #B9B9B9",
"XX c gray73",
"oX c #BBBBBB",
"OX c #BCBCBC",
"+X c gray74",
"@X c gray",
"#X c gray75",
"$X c #C0C0C0",
"%X c #C1C1C1",
"&X c gray76",
"*X c #C3C3C3",
"=X c gray77",
"-X c #C5C5C5",
";X c #C6C6C6",
":X c gray78",
">X c #C8C8C8",
",X c gray79",
"<X c #CACACA",
"1X c #CBCBCB",
"2X c gray80",
"3X c #CDCDCD",
"4X c #CECECE",
"5X c gray81",
"6X c #D0D0D0",
"7X c gray82",
"8X c #D2D2D2",
"9X c LightGray",
"0X c gray83",
"qX c #D5D5D5",
"wX c gray84",
"eX c #D7D7D7",
"rX c #D8D8D8",
"tX c gray85",
"yX c #DADADA",
"uX c gray86",
"iX c gainsboro",
"pX c #DDDDDD",
"aX c gray87",
"sX c #DFDFDF",
"dX c gray88",
"fX c #8AC2E5",
"gX c #8AC2E5",
"hX c gray89",
"jX c #8AC2E5",
"kX c gray90",
"lX c #8AC2E5",
"zX c #8AC2E5",
"xX c gray91",
"cX c #8AC2E5",
"vX c #8AC2E5",
"bX c gray92",
"nX c #8AC2E5",
"mX c gray93",
"MX c #8AC2E5",
"NX c #8AC2E5",
"BX c gray94",
"VX c #8AC2E5",
"CX c gray95",
"ZX c #8AC2E5",
"AX c #8AC2E5",
"SX c gray96",
"DX c #8AC2E5",
"FX c gray97",
"GX c #8AC2E5",
"HX c #8AC2E5",
"JX c gray98",
"KX c #8AC2E5",
"LX c gray99",
"PX c #8AC2E5",
"IX c #8AC2E5",
"UX c white",
/* pixels */
"UXLXGX=XGXUXIXUXUXUXUX@XHXPXUXJXUXUXUX:XbXUXKXUXIXUXIXqXyXUXPXUXUXUXIXgX1XUXUXUXPXIXUXNX*XIXUXIXUXUXIXGXOXLXUXLXUXUXUXLX=XDXUXPX",
"HXUXKX.XUXUXUXUXUXUXIXOXVXLXUXUXUXUXUX=XdXUXIXUXIXIXUX9X0XUXKXIXUXIXUXfX2XUXKXIXUXPXUXmX+XKXUXUXPXPXUXUXXXJXIXUXPXUXPXUX+XMXLXUX",
"UXUXZX[.CXVXGXFXSXDXHX%XcXFXSXGXSXZXAX-X0XVXBXNXCXCXBX2X1XBXSXZXBXNXBX0X=XZXNXSXCXZXDXxX$XDXJXJXPXSXFXBXXXMXmXZXSXZXVXFX=XzXCXAX",
"|.).Q.B.R.R.T.v.D.J.T.g.F.U.K.c.G.J.K.v.M.G.D.x.k.G.K.Y.U.T.E.c.z.F.U.S.n.^.I.G.f.J.T.U.V.[..X}.B.T. X.XQ.oX/.L.l.V.J.I.V.U.!.U.",
"FXCXDXPXSXFXNX#XmXVXHXCXAXSXFX>XcXFXAXJXJXDXHX0XgXHXZXIXIXJXUXgX8XDXHXIXHXUXPXcX1XKXHXDXHXFXGXNX&XCXHXFXGXPXPXJX&XbXJXGXKXKXIXPX",
"PXUXUXIXPXUXPX&XJXPXUXUXPXPXUX=XnXUXPXUXUXIXUX4XfXIXUXPXIXUXIXuX0XUXJXUXPXPXUXvX-XUXIXKXUXPXUXHX+XUXIXUXUXUXPXUX$XKXUXUXIXPXKXUX",
"PXUXUXIXUXIXIXOXHXIXUXUXPXPXUX%XnXUXUXLXPXPXUX,XpXUXUXPXIXUXIXtX4XUXIXUXUXIXUXzX=XUXUXLXUXIXKXFX.XIXJXUXUXUXLXKX+XFXKXUXUXUXUXUX",
"UXIXJXUXUXKXUXOXDXIXUXPXUXUXLX*XnXJXUXLXUXIXIX4XeXUXHXPXUXGXUXpX2XIXLXKXLXLXIXbX%XHXUXUXJXUXKXHX$XGXUXIXUXPXIXKX+XBXIXUXUXFXUXJX",
"$X X_.K.~.R.Y.v.G.U.~.Z.R.W.Y.k.Z.P.L.M.S.F.C.c.N.H.I.J.L.!.E.A.v.G.L.F.B.~.U.L.l.L.Q.Q.P.#XOX$XS./.{..X(.[.).I.v.A.L.Q.J.W.Q.W.",
"kXvXuX XjXlXkXkXdXvXdX}.uXkXlXzXcXjXbX%XwXBXbXVXmXzXVX7X7XAXnXMXbXNXnXwX:XNXBXVXCXMXNXsX.XzXBXbXbXbXbXvX#XxXFXMXmXzXvXnX@XdXCXnX",
"IXIXKX-XPXUXUXUXUXIXKX-XBXUXUXUXIXIXIX:XzXPXUXIXIXIXIXrXeXUXUXUXIXUXUXhX1XUXUXUXHXLXUXBX:XUXUXIXUXUXIXKX+XJXIXUXUXUXUXIX%XVXUXUX",
"UXKXKXoXJXIXUXUXUXJXPX&XBXUXIXJXLXUXIX<XcXIXUXIXIXUXPXeXwXPXUXIXIXLXUXkX,XUXUXPXUXUXUXmX%XUXPXUXKXUXIXPX+XUXLXUXPXUXUXUX&XCXPXUX",
"UXUXGXoXUXIXGXUXUXUXIX$XZXUXLXUXUXIXUX2XdXUXHXUXUXJXUXwX9XUXKXUXUXPXLXgX1XLXUXUXUXHXUXAX%XKXUXPXUXJXLXJXoXFXUXPXUXJXUXUX*XMXUXPX",
"4X>XoXm.oXXXXX'.).}..Xn.!.[.}.(._.[._.Z.F.(.!.I.R./.'.K.K.{.[.!.R.).).I.C.'.{.).Q.}.}.'.Z.&X3X6X}.$X&X$XJ.oXXX|.R.).].{.Z.^..X{.",
"3X3X0X7XtX0X3XG.:X1XwX1X1X6X8X!.;XtX9XrXqX0XuX{.OXtXeXaXsXpXhX%X|.wXyXtXtXpXpX3X!.yXyXtXtXdXuXrXW.tXiXsXdXgXwXrXW.0XeXuXiXiXrXaX",
"PXUXLXIXUXUXJX,XFXUXLXIXUXUXLX2XBXJXUXUXPXUXUXqXkXPXUXUXUXUXUXdXwXUXUXUXUXLXUXMX3XIXIXPXIXPXUXDX:XPXLXUXUXUXUXIX-XGXKXUXUXUXUXUX",
"UXUXKXUXIXUXUX XFXUXLXIXUXUXUX%XmXUXPXJXUXLXUX,XsXPXUXUXUXUXUXuX6XUXUXIXIXPXIXvX-XUXIXUXJXUXUXAX.XUXPXJXUXIXUXLXoXFXUXPXUXIXUXIX",
"PXUXIXIXUXPXJX$XFXUXUXUXUXUXPX=XbXUXUXUXUXUXKX6XfXIXUXUXUXPXIXpX5XHXUXUXUXUXPXvX$XHXPXUXUXUXPXSX$XKXUXUXUXUXUXJX#XCXUXPXUXUXIXPX",
"aXsXiX;X0X3X:XI.=X2X8X>X2X6X1XU..X>X;X+XOX$X.XR.!.&X=X-X=X-X>X(.T.+X=X$X.X>X;XoXP.:X4X2X2XwXtXpXT.;X7XqX,X7X3X-XF.oX,X1X>X2X<X1X",
"oXoXoXZ.@X$X#X[.(.`.`.m.(.OX&X XOX&XOXU.(.#X$X#XOX=X%X(.).-X2X&XOX%X*X`.U.=X>X=X|.=X*X|.T.=X1X9X&X>X;X=XY.>X,X;X+X*X=X$XP.OX*X>X",
"UXUXKX>XLXIXPXIXUXUXUX;XSXKXLXUXIXIXKX7XcXUXUXUXUXIXUXuXiXUXUXIXUXIXUXkX7XUXUXPXUXUXUXCX<XPXUXUXUXUXLXHX=XPXPXIXUXIXIXUX=XZXUXIX",
"UXJXFX#XKXUXUXUXGXIXIX%XJXUXIXUXUXUXUX1XxXIXUXLXIXKXUXeXwXUXPXKXUXIXUXgX2XUXUXLXUXPXPXZX#XIXUXLXJXUXUXUX+XPXLXUXPXLXUXUX&XDXUXPX",
"UXPXJX@XJXUXIXUXUXUXPX$XmXIXUXUXIXIXPX2XjXIXUXUXUXUXIXqX9XLXUXUXUXPXIXhX2XUXUXUXIXIXUXVX$XLXUXUXUXUXUXFXXXHXIXUXUXUXLXPX@XbXPXPX",
"VXnXlXW.sXkXkXhXfXhXjX].7XzXkXiXdXgXsX'.#XwX0XwXqXpXpX$XXXqXyX0XyXrXtX&X^.uXtXpXeXsXhXqX).jXcXBXxXjXlXdX(.fXsXuXrXfXsXgX'.8XfXgX",
"[.|.).R.)./.~.l.L.U.R.K.W.Q.W.n.L.E./.T.U.W.!.m.Z.~.(._.[..X XH.n.(.E.~.!.`./.T.x.(.`.(.!. XoX$XB.{.`.}..X$XoX).z.R.(.)./._.`.].",
"PXJXUXUXPXIXIX*XHXUXUXKXIXIXHX3XVXIXUXUXPXUXIXeXhXIXIXIXIXUXUXpXrXUXLXUXUXUXIXNX2XLXUXUXIXUXLXDX;XKXUXUXPXUXUXIX,XAXUXPXIXIXIXUX",
"UXUXIXPXLXUXLX$XGXUXIXUXUXUXUX=XbXIXKXUXPXUXIX3XdXUXIXIXIXUXUXaX7XUXIXUXUXIXUXbX:XUXUXPXIXUXUXFX#XLXIXKXIXUXUXPX#XFXUXLXUXIXUXUX",
"LXUXIXIXUXUXGX#XFXUXIXUXPXPXIXOXmXUXPXUXUXUXIX4XsXUXUXUXIXPXUXtX6XUXPXUXUXIXUXvX%XPXPXUXUXUXUXZXOXPXUXUXUXIXPXUXXXSXUXPXUXUXUXUX",
"IXAXJXDXSXCXNX.XbXAXGXZXDXZXDX%XdXZXNXMXbXbXcX-X3XcXMXNXMXNXmX4X-XvXvXmXnXNXMXiXoXnXMXDXVXGXJXZX.XbXCXGXAXFXMXnX{.hXmXZXVXZXVXMX",
"XX_.!.b.Y.T.R.b.C.D.J.h.G.L.W.b.A.P.H.z.m.D.J.b.n.H.I.A.S.Q.Q.D.b.L.J.Z.v.R.T.J.b.E.U.I.b.(.}..XF./.~._.P..X).E.z.L.Y.R.m.P.T.Y.",
"AXGXMX&XGXLXFXJXGXDXDX-XnXDXKXHXJXJXFX6XhXHXPXPXPXJXPXiXuXIXPXKXKXLXJXjX7XUXPXUXGXIXKXBX,XHXHXLXGXLXPXDX>XAXJXJXKXKXKXGX<XmXKXJX",
"UXIXHX&XGXUXIXUXUXIXUX%XSXUXLXUXUXIXUX2XzXUXIXUXUXJXUXqXqXUXIXUXUXLXUXkX,XUXJXIXUXIXUXBX%XUXIXUXUXLXUXGX$XLXUXUXUXKXUXIX*XVXUXUX",
"IXIXLXXXJXUXUXPXUXUXUXXXZXUXGXUXUXKXUX&XlXUXIXIXUXLXUX9X7XUXIXUXIXLXUXhX-XUXIXIXUXLXUXMX#XUXLXUXUXUXUXDXXXLXUXIXUXUXUXKX#XCXUXUX",
"UXUXSX#XKXKXLXUXPXIXLX*XMXUXUXIXUXLXJX<XdXFXHXKXJXHXHXqX0XJXKXHXLXKXGXsX>XJXJXKXUXHXLXMX@XGXUXPXUXLXUXKX$XVXIXHXKXGXLXIX*XcXLXKX",
"+X'.~.b.E.T.Q.C.J.U.T.g.F.U.W.n.S.L.H.z.N.G.D.n.m.H.I.C.Z.E.R.C.M.P.L.S.c.R.R.J.l.U.Y.R.C..X+X@XJ.)._.}.T.}.~.I.n.J.S.T.B.R.Y.T.",
"mXlXmXnXmXcXzX{.fXcXmXzXbXcXMX+XiXMXnXmXBXNXnX<X8XbXNXAXDXDXSXwX<XmXNXAXVXSXSXhX$XZXMXNXnXBXnXxXXXbXBXVXDXDXBXZXXXcXcXVXZXZXmXSX",
"JXUXPXLXUXUXKX=XFXLXLXUXUXPXUX-XmXUXPXLXUXUXUX7XjXUXLXUXUXIXUXaX0XUXIXUXUXLXUXmX<XUXUXUXKXIXUXGX=XJXUXUXLXLXUXIX&XFXUXUXKXIXUXIX",
"UXUXUXJXPXUXKX@XJXUXIXUXUXIXUX*XvXUXUXKXUXPXUX,XsXUXPXUXIXLXUXtX5XUXIXUXUXLXPXzX*XUXUXUXUXLXUXZX#XKXUXPXUXUXUXAX@XFXIXLXUXUXUXKX",
"IXHXUXUXUXLXJX+XSXUXUXPXPXPXLX:XmXUXUXUXUXLXLX9XaXLXUXUXUXUXUXsX8XPXPXUXUXUXUXnX*XUXIXLXUXUXJXHX#XLXUXUXUXUXIXUXOXDXUXPXUXUXKXUX",
"<X=XoX^.@X_.`.m.E.].}.~.).].{.z.I.!.Q.T.P.K.R.M.Z.~.^.Q.E.^.).A.b./.T.T.I.)._.E.l.`.`.[.].%X,X,XS. XXX:X XoX{.~.x.T.^.'.~.[.].).",
"qXeX7XU.rXeX0XqXqX4X6XE.-X0XqXeXqXrXrX`.,XgXyXdXyXaXpX=X;XkXxXsXpXuXgX<X.XjXhXgXpXdXdX5X].dXdXjXsXdXfXgX`.gXkXsXpXaXyXyX].8XhXfX",
"UXIXKX*XPXIXUXPXUXUXIX,XDXUXIXUXUXUXIX1XxXUXPXUXUXUXUXyXrXUXUXLXUXPXUXhX4XUXUXUXIXIXUXAX,XUXUXUXPXUXLXGX&XLXIXUXUXIXIXUX>XBXUXKX",
"PXPXHX.XPXUXUXUXPXUXIXOXSXUXPXUXPXIXUX<XcXUXPXLXLXJXUXeXwXUXUXIXUXUXUXkX2XUXIXLXUXIXIXAXOXIXUXJXPXUXIXIXOXKXPXUXUXKXIXUX@XBXUXUX",
"PXUXGXOXIXUXKXUXPXUXLX#XBXPXUXUXUXUXLX1XhXIXUXUXUXUXUXeXqXLXUXUXUXUXLXgX1XIXUXUXUXUXLXVX%XPXUXUXUXLXLXKXoXFXUXUXUXIXUXIX&XMXLXUX",
"iXeX>XF.%X,X,X;X=X>X:XP..X-X1X$X#X&XOXJ.W.OX.X{.|.$X+X!.W.+X=X.X XOXoX).K.&X%X#X|.;X;X@XR.2X9XeX<X4X4X<XU.&X*X%XXX&X-X=XY.+X*X,X",
"*X@X>X&X;X:X@XB.}.OX$X[.|.+X#XK..X;X<X*X*X1X%X!.^.;X,X3X3X5X6X{./.*X1X3X;X9X<X+XU.:X<X:X=X6X7X9XJ.:X3X5X7XrX1X5XJ.OX-X,X=X2X<X5X",
"IXJXIXUXLXUXPX-XDXIXUXUXUXUXUX1XNXLXUXIXPXUXUXeXhXUXIXUXUXIXUXaXrXKXIXIXUXUXIXMX,XIXIXUXUXUXUXGX;XUXUXKXUXUXJXPX=XDXUXUXUXUXPXPX",
"PXUXIXLXUXUXHX$XGXUXKXUXUXIXUX%XNXPXUXUXUXPXUX,XdXPXUXUXUXUXUXiX8XUXUXIXUXKXUXbX;XUXPXUXUXIXUXAX@XJXUXUXLXUXUXKX+XHXIXIXPXUXUXUX",
"PXUXLXUXUXLXPXOXSXUXIXPXUXUXUX*XmXUXIXUXUXIXUX3XdXPXIXUXUXIXIXiX6XUXUXPXUXLXUXbX=XUXUXUXLXIXUXDXOXJXLXUXIXUXIXPXoXSXIXUXUXUXUXUX",
"mXcXzXgXsXaXpXR.rXuXgXiXuXaXsX(.<XyXtX0X7X6X2X_.}.rX0XtXqX6XyXoX).7XqX9X8XrXrX>XR.rXuXiXsXkXhXlX_.fXsXfXsXjXrXtXY.9XeXuXiXaXyXaX",
"{.|.^.m.).[._.Y.U.W.W.x.Y.).).T.~.`.^.S.L.(.(.(.^.).(.I.W.@X+X).W.`.'.T.S.{. X'.~.].{./.Z.}.&X,X/.{. X|.G.OXOX{.W.).'.[.S.).oX}.",
"PXUXDX%XLXUXHXUXPXUXPX>XSXUXLXUXUXUXHX6XzXUXPXUXUXKXUXiXuXUXPXUXUXIXUXzX6XIXUXUXUXKXUXFX>XLXUXIXUXKXUXLX*XLXUXJXUXJXIXUX:XVXUXKX",
"UXPXUX%XPXUXIXLXUXGXUX=XVXIXIXJXUXUXUX,XcXUXPXLXLXUXPXuXrXJXUXLXUXLXUXzX1XUXUXPXPXUXIXnX#XUXJXUXKXUXUXJX+XPXPXUXPXUXUXUX*XZXLXUX",
"IXHXGX|.FXPXUXUXUXKXPX#XNXUXUXUXPXIXUX;XgXPXUXUXUXUXJXqXeXUXUXUXUXUXUXfX,XPXUXUXJXUXUXBX&XUXLXUXIXUXUXFXXXGXUXUXUXUXUXIX#XNXIXUX",
"KXKXMX XnXBXVXBXCXAXnXOXfXBXNXMXNXMXmX&X5XhXcXkXlXzXMX<X=XkXjXlXzXvXkX5X$XxXcXbXnXmXMXsX.XvXDXHXAXAXBXmX+XzXVXlXnXcXnXbXoXaXCXmX",
"}.`._.B.W.R.I.z.Z.D.U.n.S.R.P.c.H.K.Y.B.A.P.A.x.b.K.Y.I.R.`./.C.b.H.I.H.Z./.U.H.k.J.~.R.J._.'.+XV.Q.~.[.^.oX'.Y.l.D.T.!.H.W.Q.R.",
"GXGXLXLXPXPXFX&XSXGXJXLXJXPXGX1XmXFXUXPXPXUXPXwXkXLXIXLXUXUXPXfXeXJXUXLXKXUXLXmX2XGXUXUXJXUXKXSX&XDXUXLXIXUXPXPX=XAXJXIXPXJXUXJX",
"UXPXUXUXKXUXIX%XGXIXLXUXPXUXUX;XVXUXIXIXKXIXIX6XaXUXIXUXUXUXUXiX8XUXUXUXPXUXUXvX>XUXIXLXPXIXPXFX$XUXUXPXUXPXPXUX+XDXUXUXUXPXUXKX",
"UXIXUXUXPXUXLXXXGXUXKXUXHXLXUX+XcXUXIXUXUXUXUX3XsXUXLXIXIXJXUXpX3XUXPXUXIXIXUXxX#XUXPXUXUXIXUXSXoXUXKXPXUXUXUXJX@XFXUXKXUXIXUXUX",
"PXUXIXKXUXLXGX*XMXIXUXUXUXIXLX&XxXKXJXJXDXSXAX<XwXGXFXKXKXHXHXeX1XFXAXFXAXJXHXzX*XGXHXKXLXPXIXSX+XGXPXUXJXJXLXHXOXcXHXLXJXKXHXGX",
".XXX~.B.!.I.P.h.C.I.P.c.K.U.I.x.F.K.L.x.n.D.G.z.z.F.J.A.G.E.Y.M.j.J.H.C.n.T.L.G.k.J.T.U.A.].oXXXB.Y.~.}.W.+X/.D.j.S.T.^.C.T.!.R.",
"nXVXgX+XBXNXZXCXmXNXbXOXdXnXMXAXBXmXBX<XiXBXZXSXAXCXNXqXtXFXGXFXBXCXVXpX6XFXCXDXFXZXDXlX=XNXVXCXFXVXFXBX@XNXDXKXAXMXmXNX*XkXSXSX",
"IXUXGX$XIXPXIXIXPXUXUX;XFXUXPXUXUXIXUX1XcXPXPXUXUXUXPXuXiXUXUXIXUXIXIXgX3XUXUXUXIXLXUXMX-XIXPXUXLXGXUXLX#XLXPXIXUXUXUXUX;XZXIXIX",
"UXUXKX XKXUXUXIXUXUXPXOXAXIXUXPXPXUXUX&XbXUXUXUXIXUXPXqXqXIXUXUXUXUXUXhX>XUXUXLXPXUXUXMX$XUXIXUXUXUXUXHX XIXUXIXKXUXUXIX+XCXLXUX"
};
